<svg width="163" height="219" viewBox="0 0 163 219" xmlns="http://www.w3.org/2000/svg">
    <g fill="none" fill-rule="evenodd">
        <path d="m137.35 173.748-4.746-3.708.729-.933 4.686.534-3.17-2.475.697-.892 4.747 3.709-.753.961-4.59-.505 3.096 2.418-.697.891zm-1.303-8.092.645-1.03 2.767 1.727c.439.274.732.44.877.496a.971.971 0 0 0 .7 0c.232-.088.437-.275.616-.564.183-.291.262-.55.235-.774a.825.825 0 0 0-.273-.541c-.156-.142-.436-.337-.84-.589l-2.825-1.766.644-1.03 2.683 1.677c.613.382 1.03.68 1.247.894.22.214.368.45.449.71.08.257.093.545.04.86-.052.315-.206.675-.459 1.08-.305.488-.592.821-.862 1.003-.271.182-.541.29-.812.323a1.67 1.67 0 0 1-.746-.064c-.336-.115-.788-.352-1.36-.71l-2.726-1.702zm9.622-3.99-5.319-2.828 1.203-2.26c.301-.569.57-.955.802-1.162.232-.207.512-.323.838-.348.327-.024.646.047.961.214.399.212.667.506.803.878.134.37.111.81-.07 1.312.26-.16.51-.272.753-.337s.638-.115 1.188-.152l1.384-.098-.684 1.283-1.57.162c-.56.055-.92.105-1.082.15a.954.954 0 0 0-.394.205c-.1.092-.215.262-.347.51l-.115.216 2.22 1.18-.571 1.075zm-2.498-2.707.422-.793c.274-.516.424-.848.449-1a.662.662 0 0 0-.066-.421.79.79 0 0 0-.34-.32.728.728 0 0 0-.511-.088.747.747 0 0 0-.423.294c-.058.082-.203.339-.435.774l-.445.837 1.349.717zm5.413-2.858-5.46-2.545 1.887-4.045.925.43-1.374 2.944 1.21.565 1.278-2.74.919.429-1.278 2.739 1.486.692 1.422-3.047.92.429-1.935 4.15zm.696-18.644.542-2.345c.108-.466.207-.808.3-1.027.09-.22.217-.404.382-.556.165-.152.362-.263.595-.336a1.35 1.35 0 0 1 .728-.023 1.42 1.42 0 0 1 1.083 1.119c.186-.333.428-.568.721-.703.297-.133.614-.16.953-.083.266.062.512.183.735.366.223.183.387.398.487.647.1.25.133.536.095.86-.024.2-.12.682-.29 1.438l-.462 1.997-5.869-1.354zm1.252-.96 1.357.313.18-.776c.106-.462.165-.75.176-.866a.795.795 0 0 0-.098-.526.634.634 0 0 0-.419-.279.66.66 0 0 0-.477.047c-.136.074-.24.208-.309.4-.04.113-.124.449-.253 1.006l-.157.68zm2.333.538 1.569.363.254-1.096c.098-.428.15-.701.152-.82a.754.754 0 0 0-.134-.485c-.1-.14-.253-.235-.461-.282a.79.79 0 0 0-.477.025.745.745 0 0 0-.356.307c-.093.148-.201.494-.325 1.032l-.222.956zm3.76-4.331-5.932-1.045.211-1.198 5.933 1.046-.212 1.197zm.542-2.512-5.916-.831.169-1.204 4.91.69.422-2.993 1.005.14-.59 4.198zm-39.987 57.974c-.352-.503-.572-.977-.66-1.423a2.849 2.849 0 0 1-.015-.998c.055-.335.164-.633.327-.89.216-.347.525-.659.927-.94.728-.51 1.466-.691 2.218-.545.753.144 1.41.62 1.973 1.422.558.797.777 1.572.659 2.324-.119.752-.54 1.383-1.264 1.89-.733.514-1.474.698-2.22.555-.747-.145-1.395-.61-1.945-1.395zm1.003-.75c.39.556.818.89 1.276.998.461.107.89.021 1.287-.256.396-.279.623-.649.677-1.115.053-.464-.12-.98-.52-1.554-.396-.564-.816-.898-1.258-1.005-.443-.105-.869-.013-1.28.274-.41.289-.643.662-.697 1.119-.054.457.117.969.515 1.538zm6.462-.886-4.03-4.475 1.903-1.713c.478-.43.862-.703 1.151-.818.29-.115.592-.128.907-.04.316.09.592.265.83.53.302.335.454.703.454 1.099-.001.394-.172.8-.515 1.21.3-.062.574-.083.824-.06.25.022.639.11 1.167.263l1.335.38-1.08.975-1.532-.387c-.546-.139-.902-.215-1.07-.228a.939.939 0 0 0-.438.057c-.126.054-.292.174-.502.36l-.182.165 1.683 1.867-.905.815zm-1.421-3.397.667-.602c.435-.39.69-.652.765-.786a.66.66 0 0 0 .083-.417.797.797 0 0 0-.211-.419.724.724 0 0 0-.45-.255.748.748 0 0 0-.499.13c-.081.057-.306.25-.672.58l-.705.634 1.022 1.135zm6.757-4.754-2.15-1.03.968 2.173 1.182-1.143zm-34.423 15.866 1.182-.273.858 3.714c.113.486.154.87.13 1.15-.035.368-.18.691-.434.966-.255.279-.628.473-1.121.586-.58.134-1.063.076-1.45-.178-.387-.251-.655-.69-.802-1.317l1.088-.386c.09.333.195.56.312.68.177.18.396.24.657.18.264-.061.434-.18.509-.357.074-.174.057-.5-.053-.976l-.876-3.79zm9.151 3.417-1.244.454-.962-1.107-2.263.823.001 1.456-1.212.441.145-6.461 1.208-.44 4.327 4.834zm-2.92-1.472-1.544-1.817v2.38l1.545-.563zm11.963-5.268-1.81-1.553.373 2.35 1.437-.797zm-42.894 10.085 1.047-5.93 1.197.21-1.046 5.93-1.198-.21zm-30.75-13.2 3.455-4.933.996.698-1.534 2.19 3.546-.781 1.34.936-3.203.622-.15 4.383-1.29-.903.266-3.264-1.386.258-1.044 1.492-.996-.698zm9.772 6.464-1.11-.721.303-1.434-2.02-1.311-1.161.878-1.082-.704 5.248-3.772 1.08.7-1.258 6.364zm-.582-3.217.522-2.327-1.9 1.432 1.378.895zm-39.9-54.127.418 1.113c-.366.17-.611.385-.734.645-.123.258-.138.565-.042.923.101.378.258.642.47.79.212.149.425.195.639.138a.54.54 0 0 0 .317-.216c.077-.106.123-.27.139-.49.012-.15.012-.487.003-1.008-.013-.67.061-1.165.22-1.478.224-.444.566-.728 1.027-.85.297-.08.596-.07.9.028.302.1.564.29.784.568.219.281.389.643.508 1.09.197.732.183 1.324-.037 1.778-.222.455-.598.763-1.127.925l-.366-1.16c.285-.13.471-.297.558-.497.087-.2.086-.465-.003-.795-.092-.342-.233-.591-.426-.747a.434.434 0 0 0-.41-.09.464.464 0 0 0-.307.27c-.085.18-.118.576-.099 1.184.018.608-.008 1.067-.079 1.38-.072.312-.21.578-.42.8-.208.223-.497.382-.864.482-.334.088-.671.08-1.01-.028a1.723 1.723 0 0 1-.86-.611c-.232-.3-.416-.705-.552-1.21-.197-.735-.18-1.345.055-1.83.235-.485.667-.854 1.298-1.104zm.275 7.72 4.76-1.546-.553-1.699.97-.314 1.48 4.55-.971.315-.55-1.695-4.76 1.546-.376-1.157zm10.046 21.03-.662-1.148.923-1.138-1.204-2.085-1.433.253-.645-1.117 6.39-.98.642 1.114-4.01 5.1zm.944-3.13 1.521-1.838-2.343.414.822 1.423zm.016 4.425 4.196-2.725-.973-1.497.855-.557 2.607 4.015-.856.554-.97-1.495-4.196 2.725-.663-1.02zm137.224-42.094-5.965-.839.17-1.203 5.965.837-.17 1.205zm.51-3.912-4.977-.522-.187 1.776-1.013-.107.5-4.76 1.014.107-.186 1.773 4.975.523-.126 1.21zm.57-8.789-.071 1.322-1.394.453-.126 2.404 1.341.567-.068 1.289-5.892-2.658.067-1.284 6.142-2.093zm-2.498 2.111-2.276.712 2.19.93.086-1.642zm.147-6.771.331-1.19c.665.158 1.162.44 1.497.849.333.408.511.937.534 1.582.028.8-.222 1.466-.75 2-.53.533-1.266.816-2.213.85-1.001.034-1.789-.198-2.362-.695-.572-.498-.873-1.168-.902-2.011-.026-.736.17-1.342.59-1.817.248-.283.61-.501 1.088-.655l.329 1.193c-.31.082-.552.238-.725.471a1.28 1.28 0 0 0-.242.833c.015.445.19.803.52 1.07.328.265.852.386 1.57.36.76-.026 1.299-.18 1.611-.466.315-.284.463-.646.447-1.083a1.21 1.21 0 0 0-.337-.823c-.213-.226-.542-.382-.986-.468zm2.161-2.498-6.009.42-.085-1.213 6.01-.42.084 1.213zm-6.363-4.09-.127-1.206 3.792-.398c.495-.052.883-.048 1.158.01.36.08.663.263.906.55.245.285.392.68.445 1.183.062.591-.055 1.064-.353 1.418-.297.353-.766.566-1.406.634l-.25-1.126c.34-.05.58-.125.712-.227.201-.153.287-.364.26-.63-.03-.27-.126-.453-.292-.548-.165-.095-.491-.117-.976-.066l-3.87.407zm-.15-2.478-.19-1.2 3.222-.511c.511-.08.84-.149.987-.201a.971.971 0 0 0 .528-.46c.117-.217.15-.494.096-.829-.054-.34-.164-.588-.332-.739a.831.831 0 0 0-.56-.23c-.21-.004-.55.033-1.02.108l-3.292.52-.19-1.2 3.125-.494c.714-.114 1.224-.162 1.53-.143.304.018.571.097.802.24.23.143.43.351.596.623.167.272.287.646.361 1.117.09.567.094 1.008.009 1.323a1.886 1.886 0 0 1-.401.776c-.182.203-.385.35-.607.44-.328.133-.824.252-1.49.357l-3.174.503zm-1.265 52.328-5.66-2.06.417-1.144 2.227.81.815-2.238-2.227-.81.415-1.143 5.661 2.06-.416 1.142-2.475-.9-.815 2.238 2.475.901-.417 1.144zm3.845-11.059-.41 1.26-1.464.076-.743 2.29 1.148.896-.399 1.226-5.003-4.091.397-1.224 6.474-.433zm-2.958 1.394-2.382.1 1.874 1.463.508-1.563zm-18.655 37.423-.952.92-1.33-.618-1.73 1.672.593 1.329-.929.896-2.496-5.962.925-.893 5.92 2.656zm.61-.67-4.576-3.84.781-.93 3.8 3.187 1.943-2.316.779.652-2.726 3.247zm-27.066 19.215-.48-.986 1.13-4.898-2.522 1.23-.448-.915 3.964-1.933.414.85-1.184 5.096 3.08-1.502.445.912-4.399 2.146zm10.074-5.163-1.157.643-1.123-.943-2.106 1.168.228 1.438-1.128.625-.868-6.404 1.125-.623 5.03 4.096zm-43.464 9.474.63-5.99 1.177.124 2.031 4.257.42-3.999 1.125.118-.63 5.989-1.215-.127-2.003-4.16-.412 3.905-1.123-.117zm11.731.397-1.323.045-.573-1.349-2.408.084-.448 1.385-1.29.046 2.135-6.1 1.286-.046 2.621 5.935zm-2.322-2.303-.907-2.205-.735 2.263 1.642-.058zm6.802-.24 1.21.249c-.11.672-.358 1.189-.743 1.551-.383.36-.898.574-1.542.643-.794.083-1.477-.12-2.045-.608-.57-.49-.905-1.207-1.003-2.148-.106-.997.072-1.798.527-2.405.457-.603 1.105-.952 1.945-1.04.732-.077 1.35.077 1.853.463.3.226.542.573.73 1.038l-1.169.412a1.256 1.256 0 0 0-.52-.69 1.267 1.267 0 0 0-.847-.183c-.444.046-.788.243-1.03.591-.244.347-.327.878-.252 1.592.079.758.272 1.283.578 1.575.306.294.677.416 1.113.37.322-.033.587-.164.797-.393.21-.229.342-.568.398-1.017zm2.584 1.822-.942-5.947 1.2-.19.943 5.947-1.201.19zm-38.878-8.561c.239-.566.524-1.003.857-1.316.245-.227.525-.409.838-.54.314-.13.622-.197.929-.194.408-.001.836.096 1.287.287.819.347 1.364.877 1.64 1.593.275.714.22 1.523-.162 2.425-.38.896-.921 1.491-1.622 1.79-.702.3-1.46.276-2.273-.069-.826-.35-1.375-.88-1.647-1.588-.273-.71-.222-1.506.153-2.388zm1.167.451c-.265.628-.322 1.166-.17 1.613.153.447.452.764.9.954.444.189.879.184 1.302-.017.423-.2.77-.62 1.042-1.263.27-.635.332-1.168.188-1.6-.147-.43-.45-.743-.911-.94-.462-.195-.901-.194-1.32.002-.414.197-.759.612-1.03 1.251zm4.19 4.867 1.96-5.693 2.422.833c.609.21 1.032.413 1.273.61.24.198.4.455.475.773.075.32.055.646-.061.983-.147.427-.395.738-.74.93-.348.19-.785.238-1.31.137.2.23.35.46.452.69.102.23.213.613.335 1.15l.314 1.35-1.375-.474-.405-1.525c-.142-.545-.248-.892-.317-1.045a.952.952 0 0 0-.264-.356c-.108-.085-.293-.173-.557-.263l-.233-.08-.818 2.376-1.151-.396zm2.283-2.89.85.292c.55.19.903.287 1.057.289a.669.669 0 0 0 .406-.13.793.793 0 0 0 .263-.389.72.72 0 0 0 .006-.516.749.749 0 0 0-.357-.373c-.088-.045-.366-.148-.832-.308l-.897-.309-.496 1.444zm4.956-.971 2.174.462c.49.105.855.221 1.098.351a2 2 0 0 1 .771.731c.192.313.313.67.362 1.073.046.404.013.882-.105 1.434-.102.485-.252.89-.447 1.215-.238.398-.522.7-.852.906-.249.158-.561.255-.936.293-.28.028-.64-.006-1.08-.1l-2.238-.474 1.253-5.891zm.977 1.25-.829 3.9.887.19c.333.069.577.103.732.096.203-.007.38-.055.533-.142.152-.088.295-.257.432-.503.136-.247.253-.598.35-1.054.097-.455.13-.812.102-1.073a1.376 1.376 0 0 0-.215-.642 1.175 1.175 0 0 0-.493-.395c-.158-.073-.48-.16-.966-.263l-.533-.114zm-41.85-27.061c.485-.378.947-.624 1.388-.735.326-.08.659-.103.996-.067.337.037.64.13.906.28.357.199.686.49.988.877.547.7.767 1.428.66 2.186-.105.759-.544 1.44-1.317 2.043-.767.6-1.529.858-2.287.78-.758-.079-1.41-.466-1.953-1.162-.552-.706-.776-1.436-.672-2.188.106-.754.538-1.425 1.291-2.014zm.805.961c-.538.42-.847.863-.933 1.327a1.54 1.54 0 0 0 .325 1.27c.298.382.68.589 1.147.619.467.028.974-.172 1.525-.6.544-.426.856-.862.939-1.31.081-.447-.034-.868-.34-1.263-.31-.396-.695-.607-1.155-.637-.459-.03-.962.167-1.508.594zm1.22 6.367 4.51-3.918.797.917-3.743 3.254 1.984 2.28-.766.667-2.782-3.2zm5.514 1.667c.426-.442.85-.748 1.27-.92.312-.125.638-.194.978-.205.339-.01.651.04.936.151.382.147.747.39 1.1.73.639.618.958 1.308.958 2.075.003.765-.339 1.501-1.02 2.206-.675.7-1.395 1.062-2.156 1.09-.762.028-1.46-.266-2.096-.879-.645-.623-.968-1.314-.97-2.074 0-.76.335-1.486 1-2.174zm.928.84c-.472.49-.719.973-.737 1.444a1.54 1.54 0 0 0 .497 1.213c.348.336.756.488 1.223.452.465-.036.941-.304 1.426-.806.48-.496.728-.971.748-1.427.018-.453-.153-.855-.513-1.203-.362-.348-.772-.505-1.232-.472-.46.035-.93.3-1.412.8zm3.184 4.394.97.688c-.208.347-.29.661-.248.946.043.282.202.545.482.788.295.256.572.388.832.392.258.005.46-.075.605-.243a.54.54 0 0 0 .144-.356c.004-.13-.05-.292-.16-.484-.074-.13-.261-.41-.56-.838-.387-.549-.601-.998-.645-1.349-.063-.493.063-.918.375-1.279.203-.23.456-.39.763-.478.306-.087.63-.075.968.034.338.11.682.315 1.03.619.572.496.892.994.964 1.494.07.501-.068.966-.417 1.397l-.953-.757c.164-.268.226-.51.186-.724-.041-.215-.19-.434-.448-.658-.267-.232-.524-.36-.77-.381a.46.46 0 0 0-.494.55c.03.198.224.544.58 1.037.354.494.59.89.706 1.188.116.299.15.598.1.9-.049.3-.198.594-.447.88-.226.26-.511.442-.854.543a1.72 1.72 0 0 1-1.054-.026c-.361-.12-.739-.352-1.134-.695-.574-.5-.901-1.015-.979-1.548-.076-.534.075-1.082.458-1.64zm4.512-3.56.703.613-.067.75.761-.147.701.608-1.437.357-.806-.701.145-1.48zm-27.57-31.91c.565-.238 1.075-.356 1.531-.35.335.008.662.071.979.194.316.124.584.292.803.505.293.283.534.65.726 1.102.347.816.37 1.577.072 2.283s-.898 1.25-1.801 1.633c-.896.38-1.7.433-2.411.161-.712-.273-1.241-.815-1.587-1.629-.35-.824-.377-1.587-.081-2.286.298-.7.888-1.238 1.77-1.612zm.527 1.138c-.627.266-1.042.614-1.243 1.041-.201.428-.206.864-.017 1.31.19.446.505.745.95.894.443.149.985.088 1.627-.185.636-.269 1.05-.61 1.246-1.02.194-.412.193-.848-.002-1.31-.197-.462-.514-.765-.95-.914-.435-.147-.972-.087-1.61.184zm-.5 6.454 5.459-2.545.77 1.65-3.263 2.726 4.18-.758.771 1.652-5.458 2.546-.477-1.023 4.296-2.003-4.803.92-.494-1.061 3.793-3.084-4.297 2.002-.477-1.022zM5.496 92.737l5.949.943-.305 1.926c-.117.73-.222 1.202-.317 1.414a1.58 1.58 0 0 1-.717.765c-.336.182-.74.236-1.214.162-.364-.06-.662-.174-.889-.346a1.65 1.65 0 0 1-.507-.598 1.778 1.778 0 0 1-.183-.666c-.01-.297.026-.716.112-1.26l.124-.783-2.244-.356.19-1.2zm4.751 1.984-1.687-.267-.104.657c-.075.473-.095.795-.058.965a.802.802 0 0 0 .234.42c.118.112.264.181.44.21a.785.785 0 0 0 .567-.106.84.84 0 0 0 .339-.44c.051-.14.109-.426.177-.858l.092-.581zm-5.532 3.827 5.978.735-.312 2.54c-.078.639-.189 1.096-.333 1.372a1.38 1.38 0 0 1-.657.626 1.74 1.74 0 0 1-.973.144c-.45-.055-.804-.233-1.064-.532-.26-.299-.396-.716-.407-1.25a2.814 2.814 0 0 1-.582.585c-.203.148-.554.336-1.054.567l-1.256.587.177-1.442 1.408-.713c.504-.254.822-.43.957-.529.136-.099.233-.21.294-.332.06-.122.107-.322.14-.6l.03-.243-2.494-.307.148-1.208zm3.302 1.632-.11.892c-.071.58-.091.944-.06 1.095a.653.653 0 0 0 .212.368c.11.096.253.155.433.178.202.024.37-.01.507-.102a.751.751 0 0 0 .29-.425c.025-.097.068-.39.129-.88l.115-.94-1.516-.186zm-3.857 4.556 6.01.421-.086 1.212-6.009-.42.085-1.213zm-.072 4.182 6.096-1.942-.047 1.32-4.509 1.366 4.405 1.629-.046 1.29-5.944-2.366.045-1.297zm.102 9.11-.023-1.322 1.36-.55-.044-2.407-1.377-.473-.021-1.29 6.063 2.241.022 1.285-5.98 2.517zm2.343-2.28 2.22-.869-2.249-.774.029 1.644zm-2.06 3.918 4.984-.435-.155-1.78 1.016-.089.417 4.767-1.016.09-.155-1.777-4.985.437-.107-1.213zm.409 3.958 5.964-.837.164 1.17-3.64 3.002 3.984-.56.158 1.12-5.965.837-.17-1.21 3.552-2.95-3.89.548-.157-1.12zm1.99 11.54-.252-1.299 1.243-.777-.459-2.364-1.438-.226-.247-1.266 6.361 1.154.245 1.262-5.452 3.516zm1.913-2.653 2.035-1.241-2.35-.371.315 1.612zm9.95-66.343c-2.873.415-.491 1.543-1.357 2.381-.08.076-1.057 1.327-1.355.675-.898-1.878-.743 1.15-.758 1.977-.014.828-.147 1.059.386 1.611.202.21-.213 1.806-.229 2.737-.015.853-1.352.494-1.332-.643.014-.75-.935-1.103-.921-1.956.014-.802-1.57-.261-1.223-.952.429-.82 1.247-1.893 2.053-2.267.73-.35.617-1.282.838-2.105.167-.645 2.313-2.366 2.682-2.721.367-.356 1.444.076 1.522.077.205.004.249.523.244.755-.002.078-.16.307-.187.333-.025.026-.415.123-.363.098zm48.55 18.555c1.802-.879-1.055 4.747-2.461.528 0-.089.044-1.583-.396-1.144-.878.88-1.89-2.899-2.99-.659-.22.44-3.56-.966-3.91-1.142-1.056-.528-.749-.483-1.408-1.142-.704-.704-1.23-2.066-1.89-2.725-.308-.308-1.23-.044-1.494-.044-.396 0 .395-1.274.527-1.318 1.758-.88 1.231.834 2.55.175.483-.22 2.153-1.186.79.176-1.318 1.318.66.352.792.352.351 0 3.868.087 2.242 1.714-1.011 1.01 1.274.087 1.626.087.748 0 1.626 1.055 2.066 1.494.308.309 3.253 1.32 3.253 1.758 0 .615-.528.835-.528 1.363 0 .835 1.32.396 1.231.527zM81.5 39.203c.797 0 1.447.845 1.447 1.882 0 1.036-.65 1.88-1.447 1.88-.795 0-1.445-.844-1.445-1.88 0-1.037.65-1.882 1.445-1.882zM49.646 62.541c3.084-.877 1.888-.37 1.888 2.166 0 2.121-.37 2.812.275 4.794.184.6 1.012 2.627 1.38 2.812 1.795.876 1.105.185 1.105 2.028 0 1.06-3.359 3.826-4.326 1.89-.276-.553-1.472-.415-1.748-.968-.414-.876-1.518-2.996-1.243-3.549.553-1.106-.414-1.06-.414-2.351 0-2.812.322-6.96 3.083-6.822zm51.792-4.18c2.324-1.918 1.504-.069 3.691-.069.956 0 1.504-2.602 2.598-1.507 1.503 1.507 3.896 2.877 5.399 4.383 2.94 2.944.206 6.367.206 9.928 0 1.643-2.051 3.355-2.53 4.382-.41.821-3.28 2.807-3.213 2.807-.478.137-3.28 1.233-2.938 1.575 2.119 2.122-3.965 2.944-4.65 3.629-.819.822-2.118-.274-2.801-.274-.137 0-.137.41-.137.548 0 1.711-1.368.205-1.64-.07-.547-.546 0 1.37-.41 1.781-.889.89-2.188-1.643-1.094-2.739 1.504-1.506 1.435-.958 2.87-.958.479 0 .342-1.712.616-1.985.341-.344.41.89.888.89.137 0 .547-1.438.685-1.576 1.298-1.3 2.665-2.875 4.647-2.875.821 0 1.162.821 1.983 0 .477-.48 1.572-2.67 2.46-2.67 3.076 0 .068-4.177-.41-4.657-.547-.547-.273-1.437-1.093-2.26-.137-.135-1.983-1.643-2.05-1.643-.275-.546-.069-.89-.822-.89-2.802 0 1.504-2.807-1.434-2.807-1.026 0-1.504-.616-2.051-1.164-.206-.204.82-1.711 1.23-1.78zm-4.58-6.573c.342-.412.684-.548 1.23-.548.41 0 1.846-1.028 1.846 0 0 .754.274 1.438 1.025 1.438.479 0 1.436.068 1.709-.206.41-.41.89.548.683.96-.546 1.094-1.913.272-2.939.752-.204.069-.546.273-.751.48-.547.547-1.163.89-1.847.89-.272 0-1.298-.137-1.502-.343-.274-.274-.41-.274-.41-.822 0-.342.546-.821.683-1.163.068-.206 0-1.576.273-1.438zm-36.725 2.827c.479 0 .734.765 1.115.638.734-.224 1.434-1.337 2.231-1.72.51-.255 1.178-1.02.477-1.37-1.305-.637-2.803.924-3.823 1.242-1.082.35-1.975.032-2.995.7-1.05.702-2.039 2.9.128 2.9.733 0 1.083-1.18 1.275-1.752.222-.733.892-.669 1.592-.638zm60.996 40.47h-7.602c-1.32 0 .616 1.902.773 1.871.799-.154 1.515.555 1.515 1.132v3.552c0 1.119 1.222 1.9 2.125 2.35.623.31 1.158.166 1.16-.306l.009-5.596c.001-.32.352-1.242.957-1.132.315.059 2.29-1.256 1.063-1.87zm3.413 3.996c1.035-.14.599 2.144-.456 1.693-.396-.17-.333.755-.272 1.024.207.906 1.424.862 1.424 2.088 0 .598-1.522 1.459-.894 2.09 1.323 1.324 3.904-.2 4.5-1.393.562-1.127 1.125-1.558 1.125-3.083 0-2.187-.628-3.745-2.945-3.745-.727 0-1.49-.627-2.515-.63-2.59-.009-1.575 2.17.033 1.956zm9.71-3.2c3.692-.028 3.545 3.343 2.955 6.093-.35 1.624-2.124 3.23-3.186 4.293-.369.368-4.11 1.753-2.309-.047.231-.23 1.985-2.03 2.216-2.123.83-.415 1.94-3.692 1.94-4.755 0-1.338-.647-1.107-1.201-1.66-.277-.279-.646-.186-.646-.832 0-.231-.277-1.108.23-.97zm-28.468 1.872 2.02-.006v8.513h1.853c1.46 0 3.008 1.924 3.008 3.568-.02 3.59-.001 7.679 0 11.026 0 .409-.542-.05-.542.358.005 4.384.02 8.732.02 13.413-.749.239-.847.502-1.802.502-.329 0-.494-.89-1.086-.89-1.449 0-.823 1.089-2.174 1.089-1.021 0-1.152 0-1.152 1.187 0 .494.428 1.088.757 1.418.462.462.297 1.913.89 2.21.527.264 2.074.297 2.081 1.082 8.203 0 11.852-.125 19.618-.125 15.646 0 19.605-17.701 6.362-25.217-.483-.275-3.542-5.72.814-7.62 6.718-3.41 6.789-14.628-3.442-14.275h-27.225c-1.132 0-1.715.751-1.715 1.883 0 1.131.583 1.884 1.715 1.884zm16.852 13.538c0 7.02.305 14.45.305 21.471 9.08 1.613 10.54-4.907 8.496-12.657-1.232-3.82-5.12-6.342-8.8-8.814zm-12.979-11.84v5.01h3.973c1.389 0 3.033 1.644 3.033 3.033v31.773h11.432c25.564-4.838 9.261-24.547-2.126-27.598 16.602 9.587 12.795 24.02.938 25.133h-7.105l-.035-27.589c-.607-.95-2.235-2.025-1.196-3.066.208-.208-.277-.659-.277-.659-.242-.243-1.004.312-1.316-.312-.312-.624-1.108-1.458-1.975-1.458-.415 0-2.077-2.116-2.39-2.428-.727-.729-1.661-1.908-2.956-1.839zm-67.68 8.542c0-1.06-.984-2.73-.454-3.26 1.059-1.06 4.162-1.515 4.162.834 0 .834-1.59 2.956-1.59 3.866 0 2.274-.151 5.078-.151 7.503 0 2.35-.226 5.457-.226 6.974 0 8.033-.303 8.943-4.844 13.491-1.21 1.213-1.362 0-2.043 0-.908 0-4.616 1.364-5.372-.227-1.437-2.957 1.967-.758 2.95-1.744 3.255-3.26 4.617-3.183 4.617-9.398v-20.086c0-.606 1.134-.227 1.134.076l-.075 15.537c0 3.64.908 8.945-.454 11.673-.53 1.137-2.572 1.592-1.74 2.425.983.986 4.16-4.092 3.632-4.623-.303-.303.226-10.61.226-12.128 0-1.515.38-4.85-.226-6.138-.455-.986.529-2.047.529-2.653 0-.076.53-2.426-.076-2.122zm2.805-12.784c.475 0 .687-.422.898-.422.106 0 .582-.053.74-.053 1.215 0 1.426 1.32 2.06 1.953.053.053 1.003.476 1.003 0 0-.317-.053-.844-.053-1.056 0-.21-.95-.95-1.162-1.162-.21-.21-.845-.527-1.267-.739-.37-.158-1.849 0-2.166.16-.158.052-.527.632-.527.791 0 .21 0 .37.105.475 0 0 .37.158.37.053zm-11.46 2.217c1.003 0 2.693 1.373 3.38.687.633-.634 1.478-.845 2.694-.845.686 0 2.059-1.268 2.323-1.003.317.317.317.634.475 1.003.212.423 1.321 1.004.74 1.584-.687.687-1.11 2.218-2.43 2.535-1.268.317-4.278 2.112-5.757.634-.21-.212-1.373-.212-1.373-.475 0-.212-2.007-4.067-.052-4.12zm-6.18-.58c-.264 0-.211 0-.318.105 0 0-.105.317-.158.37-.052.053-.159.212-.317.212-.052 0-.052.052-.158.052-.211 0-.74.158-.792.264-.054.106-.106.633-.054.686 0 0 .16.16.212.16.105 0 .423.104.634.104h.58c.37 0 .53-.264.74-.475.053-.052.053-.158.053-.158.106-.106.317-.264.422-.37.054-.053.317-.158.317-.37 0-.158-.263-.527-.422-.527 0 0-.37 0-.422-.053-.106-.106-.265 0-.317 0zm-1.677-4.814c4.108 0 9.144 3.862 14.132 1.368 3.325-1.661 12.176-2.346 12.176 2.983.097.781.586 2.639.048 3.177-.44.44-.636.977-.636 1.858 0 .44-1.76 1.515-2.053 2.15-.147.342-.538 1.028-.538 1.467 0 .147-.44.342-.489.391 0 0-.49.587-.147.587 0 2.542-.098 5.33-.098 8.017 0 .587-1.516 2.543 0 2.543.391 0 .245.879-.293.879-.554 1.441.087 3.403.087 4.823 0 1.453-.102 3.076-.102 4.53-.013 2.777-.057 7.177-1.833 8.955-1.641 1.646-3.727 2.579-5.28 4.135-1.465 1.466.532 1.866-.355 3.689-.666 1.378-5.104 2.134-5.104-.223 0-.933 1.953-1.021 1.242-2.445-1.73-.844-5.28-1.332-6.257-3.289-.665-1.378-1.646-2.845-1.686-4.756-.05-2.332 1.102-2.412 1.538-1.336.49 1.21 2.03 1.553 3.122 1.515 1.27-.047 2.854-.115 2.75-2.357-.047-1.066.889-2.222.889-3.867-.222-1.512.088-3.38.088-4.89l.178-13.957c-.134-.979-.799-2.09-1.376-2.668-.576-.578-1.553-.266-1.864.355-.62 1.29-2.174.311-2.707-.222-.576-.578-2.263.889-3.106.889-.922.294-2.813.412-3.719-.022-.63-.316-.708-1.893-1.693-1.893-1.26 0-1.457-3.314.591-3.314.944 0 .709-2.681.119-2.958-3.978-1.972-2.403-6.192 2.376-6.114zm54.774 62.146-.286-29.646-.46.155c-21.871 6.037-18.624 20.76.445 29.602l.301-.11zm-.36-37.249-.214-22.158-.192.01c-17.962 7.932-15.464 15.994.078 22.147l.328.001zm3.457-22.371-.216 22.38.98.002c14.341-6.93 14.984-16.682 0-22.428l-.764.046zm-.28 28.925-.287 29.765.06-.02c19.448-9.224 19.133-23.417.9-29.972l-.673.227zm15.128-22.333c-.348 0-.908-.14-1.117.07-.07.07-.42 1.187-.42 1.396v.63c.14.418.21.977.56 1.117.07 0 .21.418.28.418.21.07.35.419.35.768 0 .21.487.42.697.42.21 0 .558-.07.558-.28 0-.28.63-.768.84-.977.069-.07-.14-.979-.14-.979 0-.14-.56-1.186-.629-1.186-.21-.07-.21-1.328-.979-1.397zm1.03 39.788c-.453.226-.565.566-.793.793l-.226.226s.114.228-.113.228c-.113 0-.454.451-.454.451h-.34c-.112.114-.34.34-.34.568 0 0-.226.453-.226.565 0 .114-.226.34-.34.454-.113.113-.567.793-.567.906v.566s.567.226.793.226c.34 0 .68 0 .68-.452 0-.227.567-1.133.68-1.246.114-.114.567-.68.68-.68.113 0 .567-.453.567-.453.226-.114.567-.793.793-1.02.114-.113-.114-.679-.114-.679l-.226-.113s-.114-.228-.453-.34zM79.94 191.122c-.2-1.113-.2-2.634-.2-3.402 0-.677-.453-1.085-.453-1.898 0-1.132.993-1.086-.09-2.171-.587-.589-2.935-.317-2.212-1.81.82-1.68 2.207-.957 3.51-1.185l-.2-20.662c-.367-.09-.743-.175-1.131-.256-11.57 5.269-18.736 10.524-17.914 17.364 3.694 1.226 4.198 5.628.532 4.136-11.981-2.013-6.114-15.793 12.976-24.018-23.81-12.158-23.689-29.324.435-36.555-19.383-5.713-20.676-19.715-.45-29.587l-1.625.05c-1.967-.845-4.013-1.938-6.29-2.093-1.692-.115-2.89-1.393-3.743-1.82-3.523-1.76-6.604-4.072-9.576-5.501-9.245-4.622-13.427-14.965-6.162-22.228 1.76-1.76 10.235-6.161 10.235-8.252 0-2.311 5.613-.88 6.714-1.98 3.852-3.852 4.292 4.4 4.512 5.281.11 6.602-12.877 1.65-12.877 10.894 0 10.673 4.843 9.902 10.676 15.735 1.04 1.04 8.481 4.09 11.06 5.504 1.07.586 1.511 1.007 1.931 1.156l-.275-28.49-4.599-9.533c.58-.776.424-1.208 1.37-1.75.546-.315-.354-2.049-1.005-2.044h-2.053v-1.983c0-1.19.97-2.158 2.159-2.158l1.82.001c.57 0 1.035-.465 1.035-1.033v-.166c0-1.445.898-2.688 2.164-3.2v-1.262c0-.708.578-1.285 1.285-1.285.709 0 1.285.577 1.285 1.285v1.263a3.457 3.457 0 0 1 2.165 3.2v.165c0 .568.465 1.033 1.034 1.033l1.821-.001c1.19 0 2.159.969 2.159 2.158v1.983H87.91c-.65-.005-1.551 1.73-1.005 2.044.947.542.789.974 1.37 1.75l-4.6 9.533-.259 26.914c4.663-2.53 11.57-6.343 12.143-6.8.856-.68 3.623-3.217 4.512-3.628.956 0 4.237-4.314 4.237-5.204 0-3.012-.409-3.63-3.144-4.997-2.05-1.028-1.094-2.74-2.05-3.699-1.914-1.916-.348-5.411-3.28-3.286-1.733 1.255-3.214 3.014-4.581 4.999l1.367-2.945-2.666 2.534c1.09-2.125 3.066-4.111 4.083-6.166 0-1.871-.26-6.962 2.079-8.105 1.506-.728 7.066-.572 8.158.52.572.57 3.845 3.583 4.469 3.896 3.586 1.766 4.976-.434 7.483 5.143 2.445 5.44.904 12.39-2.963 16.728-8.544 9.593-14.458 11.049-25.163 15.349 22.594 7.458 20.82 21.898.648 29.922 20.91 7.69 19.072 23.95-1.716 35.645 2.265-.027 8.96 6.838 10.707 8.857 2.344 2.706 4.192 9.318 11.443 5.219 2.187-1.237 8.442 3.11 5.998 3.11-1.111 0-4.33-.194-5.554.333-5.351 2.303-8.308 3.851-13.33-2.777-4.318-5.698-8.055-8.364-13.599-10.215l-.194 19.975c1.305.228 2.69-.496 3.512 1.185.722 1.493-1.626 1.221-2.212 1.81-1.084 1.085-.091 1.04-.091 2.17 0 .814-.451 1.222-.451 1.9 0 .767-.001 2.281-.202 3.4 36.351-1.023 65.74-37.725 65.74-82.586 0-10.52-1.62-20.59-4.564-29.858-.358-1.125.246-2.713-.263-3.754-.44-.9-.67-2.207-1.94-2.207-.747 0-.897-1.494-1.233-1.832-.598-.598-1.046.262-1.046-1.085 0-1.083-1.083-1.533-1.792-.823-.298.3-.261-1.159-.261-1.271 0-.412-.449-1.01-.15-1.309.448-.448 1.793-.411.636-1.57-.56-.561-1.083-.637-1.083-1.683 0-1.347 2.24-2.133 1.567-2.806-1.27-1.272-4.032.45-4.032 1.683 0 .935-1.904.337-1.904-.56 0-.637-.225-2.619.56-2.619.336-.673-.038-3.553 1.045-3.553.896 0-.56-2.169-.597-2.206-.523-.524-1.307-.673-1.755-1.123-.709-.71-1.008-1.608-1.642-2.244-.337-.336-.076-1.084.148-1.309.561-.56-.298-1.046-.298-1.084-1.195-.599-3.025-3.217-1.532-4.712.225-.225-.484-.749-.521-.749-.636-.299-.225-1.646-.449-1.757-.447-.225-2.463-1.31-2.39-1.834.286-2.034.796-4.754-3.733-5.422-.634-.093-.185-1.002-.603-1.28l-1.118.608-2.878 2.802c-.226.22-.674.028-.925.216-.41.306-.567.966-.984 1.263-.46.329-1.12.087-1.554.45-.424.357-.16 1.218-.607 1.545-.344.251-.894-.262-1.274-.072-.368.183-.276.908-.665 1.041-2.297.779-2.141-.638-1.942-2.866.076-.846-1.779-2.165-2.256-2.021-.808.241-1.28 1.013-2.124.995-.58-.013-1.19-.507-1.373-1.059-.22-.672.384-1.965.498-2.662.157-.965-.732-1.11-1.709.33-.792 1.17-2.745 1.178-2.62-.427.145-1.863 1.69-3.337 2.44-5.05.23-.528.21-1.156.497-1.656.905-1.58-.186-2.045-1.098-.804-1.353 1.842-2.555 3.8-4.141 5.426-1.72 1.763-2.694 1.133-2.95-.725-.081-.6-.234-1.154-.073-1.738.128-.463.744-.757.743-1.238-.003-1.128 1.363-3.446.198-3.491-1.128-.046-1.477 1.862-2.168 2.82-.313.432-.617.831-.825 1.322-.283.672-.441 1.402-.789 2.044-.259.481-.664.87-1.014 1.29-1.012 1.209-1.912.612-2.762-.108l.21-3.694.52-2.06.102-4.17c-.38-.665-.737-.686-1.072-.062l-.357 1.53c-.538.154-.738.502-.597 1.043l-.48 3.307c-1.063.826-1.433 2.087-1.27 3.465l-.85 1.1c-1.527 2.108-2.762 2.128-3.701.06-.862-1.895-.12-4.172-.455-6.225-.072-.442-.658-.68-.743-1.12-.202-1.039.093-2.13-.09-3.173-.304-1.724-1.232-1.42-1.266-.205l-.165 5.998c-.027.992-.46 1.962-.538 2.951-.134 1.705-.965 3.43-1.995 3.294-1.363-.178-2.153-.903-2.611-1.885-.215-.462-.183-1.234-.836-1.607-.481-.274-.155-1.108-.313-1.64-.275-.93-.483-1.882-.782-2.805a44.945 44.945 0 0 0-1.106-3.028c-.465-1.148-2.068-1.521-1.93-.379.21 1.73.649 3.471.449 5.147-.039.32.437.517.49.836a20.86 20.86 0 0 1 .264 3.653c-.054 5.695-3.66 1.166-4.44-1.195-.372-1.129-1.428-.577-1.311.6.045.459.714.672.811 1.124.164.768.061 1.58-.067 2.354-.178 1.088-1.974 1.407-2.716.453-1.59-2.046-2.567-4.721-4.252-6.844-.487-.612-.506-1.503-.956-2.143-.7-.994-1.416-1.108-1.147.07.336 1.473 1.759 2.606 2.088 4.23.16.789.295 1.662.63 2.392.306.66 1.04.948 1.161 1.666.364 2.16-.685 3.394-2.489 2.773-.51-.176-.494-1.095-1.003-1.27-.39-.133-1.336.203-1.108.544 1.477 2.209-.448 1.733-1.863 1.456-.56-.108-.397.94-.786 1.358-1.21 1.302-2.865.967-3.896-.086-1.922-1.963-3.819-3.687-5.51-5.442l-.11-.12c-1.382.445-2.636 1.398-3.84 2.559.255.666.407 1.373-.165 2.367-1.136.249-1.948.866-2.28 2.018-1.835.45-3.75.737-4.308 3.79-.172.634-.512.446-.817.422.204.479.437.945.22 1.625-.36 1.057-.532 2.163-.619 3.294-.983.301-.33 1.457-.846 2.043-.774.879-1.639 1.036-2.278 1.893 1.015.987-.171 2.38 1.257 2.952.362.393.315.641-.137.746-.57.09-.807.461-.705 1.11.395.363.273.765-.084 1.184-1.706.793-2.772 1.792-1.558 3.526 1.027.088 1.754.745 2.079 1.915-.055 1.076-.475 2.346.199 3.362.822.603 1.139 1.498-.082 1.792-.442-.494-.895-1.133-1.554-.947-.308.385-.746.46-1.314.226-.475-.91-1.151-1.026-1.92-.781-.791.01-1.474.124-1.388.972.248.51.446 1.045.28 1.751-.14.341-.411.44-.815.298-.182.977-.071 2.007.367 2.654-.651.451-1.034.967-1.076 1.701.775.193 1.32.34 1.672 1.21.342.912.047 1.275-.68.939-2.006-1.718-2.806.717-2.947 3.176-.023.404-.336.382-.691.3-.535 2.236.224 3.57-.599 5.75a99.738 99.738 0 0 0-2.578 22.634c0 44.86 29.387 81.563 65.74 82.587zM81.802 218l-.604-.005-.245-11.01C36.865 206.621 1 162.54 1 108.535c0-11.28 1.566-22.124 4.444-32.23.365-.702.537-.974.554-1.652-.243-1.514-.593-3.303 2.034-5.764 1.014-.19 1.285-1.002 1.222-2.098-1.599-2.476-.782-3.941 1.394-4.84 1.576-.598 1.628-2.78.122-2.691-.88.21-.798-.34-.497-.868.675-.17 1.357-.263 2.06-.09.375-.34.471-.676-.045-.998a1.66 1.66 0 0 0-.999.045c-.703-1.03-1.178-.66-1.62-.09-.456.18-.794.57-1.018 1.166-.394.225-.704.137-.931-.265.381-1.624.815-3.092 1.944-4.144.978-.688 1.324-1.493 1.775-1.972.573-.61 2.05-.28 3.38-.37.66-2.373 2.132-2.574 3.9-1.99l2.478-2.512c-.18-1.52-.04-2.873.32-4.11.995-.35 2.064-.335 3.182-.07-.032-2.649.172-4.737 2.046-2.894.393-1.411.983-2.029 2.013-.9.48-.129.686-.45.763-.86.3-1.569 1.238-3.164 3.03-4.23.143.189.255.609.398.799.327.182.557.124.689-.176-.046-.676.211-1.108.77-1.296.313-.7.283-1.408-.087-2.122.27-.894.615-1.19 1.126-.167-.092.682-.171 1.366.15 2.123 1.515-1.715 3.305-1.567 4.548-2.59-1.5-1.725-2.765-3.552-3.632-5.72-1.156-2.885.191-5.415 2.37-7.41 1.96-.81 3.277-2.12 4.334-3.284.627-.691 1.768-.6 2.652-.9 2.409-.604 3.191.816 3.31 1.734.277 1.006.9 1.782 1.677 2.453 1.142 1.134 1.442.971.903-.488-.159-1.076-.84-1.861-1.527-2.71-.462-1.285-.55-2.745.454-3.615 1.016-.878 1.57-1.035 1.688-1.793.793-1.492 2.169-1.831 3.347-1.607l2.26-.366c1.73-.28 1.797-2.606 5.232 1.443.346.408.658.403 1.014-.078.022-2.028 1.085-3.008 2.794-3.769 1.713-.668 5.199-.153 6.125-.867 1.315-1.014 2.763 1.624 3.085.904.411-.924 1.5-3.523 3.338-3.484 1.838.04 3.808.36 5.424.001.849-.188 2.286-.247 2.477.468.22.82.528 1.168 1.326 1.957.403.397.274 1.22.428 1.923.096.439.443.561.625.016.28-.844.654-1.308 1.297-1.902.633-.586 1.829-.189 2.53-.297 2.578-.398 4.368-.024 5.68 2.392l.397 3.66c.06.55.433.974.781.449 1.513-2.267 2.678-2.204 5.299-2.013 4.262.312 2.994.951 5.183 2.226 2.845 1.657 3.451 3.738 1.67 6.136l-1.843 2.86c-.665 1.033-.76 1.999.554.907 1.314-1.091 2.564-3.284 4.032-4.689.803-.77 2.585-.623 3.373.182.63.642.578 1.703 1.606 1.771l1.296.086c.341.023.309.947.65.93 2.133-.1 2.196 1.336 2.724 2.262.57.996 1.152.878 1.664 1.676.233.632.276 1.64-.216 2.108-.45.429-.43.993-.865 1.536-.042.93-.233 1.203-1.288 1.42-.548.112-.854.626-1 1.26l-1.026 1.667c1.316.548 2.975.64 4.462 2.97.354.556 5.607.082 5.607 3.133 0 3.38 2.969 1.896 2.969 3.874 0 2.639 1.566.989 2.968 2.39 1.484 1.485 3.217 3.629 4.535 4.948.496.494-.659 1.4.907 1.4 1.155 0 1.65.99 1.65 1.897 0 .577-.165 2.556.164 2.556 1.01.159 1.689 2.372 2.793 2.924.552.277 1.857 2.263 2.586 1.534 1.13-1.132.702 0 1.907 0 2.435 0 2.085 1.585 3.264 2.162.527.253.803.805.803 1.535 0 .855 1.004.427 1.004 1.182-.003.915-.175.866-.59 1.282-.099.098-.637-.098-.637.098 0 .662-.147.613-.783.613-1.615 0-.293.661-1.003 1.373-.343.343-.735.906-.441 1.495.416.858 1.517.27 1.517 1.64 0 .713-.097.762-.44 1.105-.073.073-.146.024-.195.146-.246.49.244.686.244.663.17.599.73 1.42.73 2.243 0 .524-.11 1.46.262 1.833.494.495.764.927.855 1.307.15.309.309.744.36.926C160.535 87.151 162 97.64 162 108.535c0 54.005-35.866 98.086-79.953 98.45L81.802 218zM12.488 62.07c.442-.033 1.329-.339 1.532-.536.286-.275 1.112.581 1.27.745.276.286.833 2.744.112 2.732-.4-.007-.454.714-.461 1.116-.002.2-1.578.935-1.821 1.051-.687.31-.622 1.194-1.152 1.706-1.06 1.026-1.077 2.07-3.04 2.035-1.844-.032.618-.993 1.022-1.187 1.656-.774.334-3.085.357-4.409.021-1.244.06-1.123.6-2.197.124-.24 1.462-1.098 1.581-1.056zm12.654 2.83c-.6-.01-.72-.053-1.035-.38-.196-.204-.111-.523-.592-.532-.922-.016-.651.55-1.257.82-1.293.62-2.155-.477-2.136-1.602.005-.24.497-.874.66-1.032 1.06-1.025 2.892-.391 3.6.344.236.245.6.05.592.533-.01.521.83.696.825.977-.005.28.273.446.028.683-.163.158-.325.235-.685.189zm-13.097-9.581c-3.446-.061.941-3.396 2.122-2.171 1.023 1.06 3.188 1.019 4.95 1.049 1.043.019 1.22-.982 1.82-.971 2.484.043.777 1.498.758 2.541-.012.683 2.571 1.932 1.52 2.436-.727.348-1.467 1.42-2.268 1.405-1.283-.022-1.647.172-1.672 1.617-.026 1.485-1.645.132-1.883.007-.596-.291-.496-1.493-1.092-1.785-1.469-.748.915-1.871 1.756-1.857 1.242.022 1.34-.98.71-1.632-.826-.858-1.88 2.094-3.667 1.18-.517-.25-.62-1.176-1.422-1.189-.922-.017-1.471-.668-1.632-.63zm9.02-3.417c.007-.463-.093-2.507.128-2.72.028-.027.152-.95.527-.563.694.72 3.03-2.342 3.226-2.72.563-1.105 1.61-.38 1.588.9-.009.489-.09 2.067-.395 2.361-.304.293-.91.719-1.241 1.04-.304.294-.497.426-1.066.416-.708-.013-.484 1.216-1.136 1.205-.218-.003-.577.317-.793.313-.163-.003-.816.04-.839-.232zM31.84 37.35c.003-.174.041-.313.043-.488.002-.034.072-.102.072-.102l.004-.175a.522.522 0 0 1 .108-.243c.035-.035.074-.208.143-.242.036 0 .072-.104.072-.104s.176-.101.212-.1l.105-.103.279.005c.313.005.586.359.724.501 0 0 .064.245.1.281 0 0 .029.28.029.315-.036.07-.143.137-.143.172l-.25.31c-.035.034-.278.03-.314.064l-.314.03c-.07.034-.35.064-.454.061-.07 0-.175-.002-.209-.038 0 0-.173-.073-.207-.144zM17.047 50.928c.33.006.59.392.582.859-.009.467-.283.844-.612.838-.327-.006-.588-.391-.58-.859.008-.467.282-.844.61-.838zM135.63 43c1.289 0 2.004 1.574 3.292 1.574.322 0 .68.787.68 1.109 0 .322.75.68.894.823.824.823-1.18 1.931-1.18.357 0-.93-1.002-.894-1.002.25 0 .537.465 1.324.465 2.147 0 1.68-.609 2.754-2.254 2.754-.322 0-1.897-1.287-2.11-1.502-.86-.858-.646-3.649 0-4.292.929-.93-.394-3.256 1.215-3.22zm5.868 8.942c.393 0 .68-.25.895-.25.536 0 .536.465.715.859.25.501-.393.787-.393 1.001 0 .072-.108.358-.108.501 0 .25.072.751-.072.894-.142.143-.965.93-1.251.645-.072-.072-.144-.036-.144-.18 0-.357.394-.465.394-.893 0-.358-.502-.144-.608-.394-.215-.465-.322-.859-.072-1.36.108-.214.536-.787.644-.823zm.733 5.726c.313-.521 1.33-2.163 1.85-2.163 1.044 0 1.252.651 1.252 1.615 0 .365-.417.495-.6.678-.86.86 1.2 3.91 1.903 1.798.13-.416.99-1.25.99-.365 0 .548.131 1.069-.234 1.433-.26.261-.522.34-.73.756-.443.913-.156 1.565-1.303 1.565-.678 0-.652-.835-.913-1.095-.339-.34-.208-.521-.73-.861-.469-.312-.286-.989-1.095-1.38-.182-.08-.365-1.695-.39-1.98zm4.004 21.418-.075-3.584c.001-.61.045-1.263.073-1.918.049-1.144 0-1.622.381-2.433.526-1.097-1.43-2.719-.334-3.816.954-.953.43-1.097.43-2.527 0-2.48 2.623.381 2.623-2.29l-.095-.81c0-1.145-.525-2.099 1.146-2.099.667 0 1.143-1.382 2.146-.906.858.429 1.431 1.144 2.051 1.431.526.239 1.48 1.479.86 2.098-.144.144-3.96-1.67-3.96.62 0 .43-1.385 3.338-1.766 3.72-2.003 2.004-.524 1.67-.524 3.53 0 .763-.954 2.098-.954 3.672 0 1.001-.43 4.099.713 5.243.142.142 3.026.887 3.264.887.573 0 2.701-6.464.029-6.464-2.623 0-2.194-3.052 0-3.052 2.864 0 .907 3.386 2.434 3.386.858 0 1.602 2.78 1.602 3.637l.124.6c2.63 9.601 4.057 19.865 4.057 30.524 0 53.192-35.471 96.574-78.96 96.574-43.49 0-78.96-43.382-78.96-96.574 0-12.102 1.838-23.693 5.187-34.384a4.912 4.912 0 0 1 3.067-.046c.312.614.312 1.278 0 1.995-1.284 1.152-.835 2.641-.437 4.115.546.574.858.47.936-.312-.26-1.611.293-1.795.873-1.932.489-.475.821-.35.997.373 2.636-1.996 3.03 5.333 1.808 7.608a103.405 103.405 0 0 0-2.474 22.583c0 46.907 30.998 85.166 69.002 85.166 38.006 0 69.003-38.259 69.003-85.166 0-10.343-1.51-20.265-4.267-29.45zM120.55 29.097c-.205.037-.385.13-.537.255-1.433.187-1.99-.532-2.56-1.762-.292-.63-1.707.398-1.234 1.007.49.632 1.198 1.038 1.597 1.63.37.532.186.876.033 1.234-1.489 1.265-2.978 2.532-4.466 3.799-.57.34-.96.266-1.166-.22l.175-1.273c.548-.115.928-.458 1.23-.904.247-.435.277-.657.275-1.228 0-.808.162-.96-.542-1.262-.494-.211-.25-.936-.597-1.214-.68-.543-1.591-.273-1.906.16-.128.22-.184.53-.402.6-1.775.572-2.527 1.26-3.362 2.573-.89.952-1.276.728-1.433-.03.039-.682.077-1.364.117-2.045 1.189-1.031 1.705-2.697 2.868-3.634.18-.145.52.006.675-.166.185-.207.022-.596.2-.81a3.093 3.093 0 0 1 1.228-.905c.303-.117.88.365.97.055.27-.923-.095-1.92-.143-2.881.523-.219 1.095-.41.83-1.082.706.087.82-.212.851-.566.325-1.428 1.42-2.163 2.471-2.938 1.57-.903 2.915-.245 4.036 1.972l-.384 1.364c-.166.31.012.31.24.269 1.479-1.055 2.592-1.086 2.906 1.14l-1.818 2.257c-.763 1.089.462 1.81 1.06.514.156-.026.304-.198.46-.223.735-1.808 2.46-.811 1.553.601l-.912 1.641c-.566-.06-1.006.17-1.32.694.093.314.13.623-.205.913-.273 0-.547.002-.82.005-.035.165.023.306.032.46zm-80.957-8.746c.438-.419 2.26.476 1.998-.072-.605-1.271.565-1.47 1.103-2.373.481-.805 1.116-1.795 1.583-.765.25.55.618 1.606 1.175 1.377.58-.236-.073-1.264.05-1.878.26-1.29 1.265-1.24 1.885-.063.626 1.188 1.105 2.462 1.85 3.58.172.262.68.17.828.446.172.317-.23.8-.003 1.083.2.251.779-.154.962.111.283.41-.124 1.068.143 1.49.232.365.932.212 1.164.578.266.422-.094 1.052.144 1.49.17.313.75.208.94.51.205.323-.06.8.106 1.145.359.742 1.151 1.241 1.424 2.018.21.59.357 1.402-.05 1.878-.264.31-.704-.468-1.11-.52-.203-.025-.37.44-.53.313-.81-.64-1.067-1.96-1.959-2.481-.688-.403-2.568-.577-2.806.183-.623 1.99-.438 4.295.733 5.991.366.53.37 1.324.067 1.894-.175.329-.821.26-1.16.102-1.258-.586-2.037-1.5-2.448-2.814-.158-.503-.746-.432-1.262-.683-.455-.222-.832-.768-1.084-1.159-.182-.283.36-.626.67-.76.262-.113.54.155.783.008.465-.281.924-.644 1.106-1.154.223-.625.287-1.393-.202-1.841-.388-.357-.514.52-.99.747-1.619.777-2.743.945-3.655.135-1.503-1.333-2.73-3.207-3.07-5.188-.206-1.214.723-2.476 1.615-3.328zm13.985-7.93c.591.667 1.36 1.209 1.78 1.994.208.384.241.947-.003 1.308-.15.221-.597.05-.787-.137-.664-.657-.931-1.669-1.648-2.267-.27-.226-.903-.307-1.053.01-.18.384.388.763.494 1.173.114.435-.03.933.158 1.342.158.34.675.425.822.77.198.466-.076 1.055.147 1.509.632 1.28.933 3.537 2.36 3.575l1.349.036c-.179.56-.731 1.128-.533 1.68.741 2.072 1.977 3.944 3.2 5.774.186.279.825.719.924.398.363-1.177.253-2.473.094-3.696-.067-.521-.717-.86-.753-1.385-.079-1.143.338-2.115 1.25-2.914 1.084.974 1.584 1.97 2.273 2.96.454.653.193 1.581.454 2.332.244.7.71 1.328 1.235 1.852.168.167.587.29.712.086.39-.639.212-1.35.107-1.914-.057-.313.256-.634.169-.94-.096-.34-.69-.472-.669-.824.176-3.1.328-4.82-1.443-5.249-1.857-.45-.99-3.69-.858-5.409.025-.318-.005-.695-.217-.934-.144-.162-.635.18-.648-.036-.051-.875-.11-1.726-.79-2.269-.12-.094-.283-.191-.307-.342-.048-.304.313-.689.106-.916-2.055-2.259-3.373-1.834-2.092 1.562.374.992-.228 1.504-.783.444-.314-.598-.363-1.718-1.038-1.74-2.705-.09-5.566.412-4.012 2.167zm12.064-2.85c.05.332.69.318.775.642.233.875-.142 1.847.116 2.717.105.35.847.284.885.647.125 1.18.034 3.068 1.678 3.838l1.318.615c-.473.353-1.066.766-.48 1.764.194.329.511.112.666.461.195.44.003 1.3.343 1.82.169.258-.203.757.055.924.92.595.752 1.145.86 2.056.037.33-.157.878.16.985.303.103.532.186.595.956.091 1.12 2.255 1.871 2.476.248.306-2.242.148-4.917.591-7.558.13-.77-.43-1.818-1.184-2.02l-1.28-.344c.407-.193.996-.191 1.223-.58.338-.58-.133-1.461.275-1.992.468-.607.936-1.214.27-1.883-.822-.825-.478-2.287-.563-3.449-.068-.936.158-1.877.106-2.814-.05-.907-1.56-1.523-1.693-.693L72.58 7.47c-.772-1.979-1.37-1.921-1.796.17-.805.03-1.341-.558-1.89-1.03-.3-.257-1.05.035-1.107.426l-.175 1.183c-1.815-1.52-2.256-.513-1.972 1.352zM81.12 3.456c.633 1.046.51 3.549 1.2 3.132.589-.355.33-1.975.69-2.89.399-1.012 1.585-.716 1.57.5-.044 3.513 1.602-2.235 2.294 1.456.525 2.799-.197 5.854-.641 8.954-.006.05.024.16-.025.149-1.247-.305-.8 1.462-.623 2.301.477 2.263-1.26 4.237-2.04 5.402-.856 1.276.27 3.542-.434 4.93-.82 1.614-2.612 1.504-2.435.083.628-5.04-.531-3.605-.646-4.191-.322-1.634-.482-3.198-.054-4.658.018-.06-.002-.157.056-.178.758-.273.794-.69-.006-1.09-.08-.04-.069-.164-.088-.246-.086-.36.021-.703.517-.717 1.743-.053 1.589-.727-.137-1.2-.733-.2-1.02-.803-.825-1.034.817-.966-.543-1.926-.742-2.494-.389-1.114.133-2.863-.231-4.273-.199-.77-.748-1.07-.787-1.251-.368-1.646 2.634-3.93 3.387-2.685zM93.07 6.505c.063 4.338.59 4.804 1.691.588.66-.87 1.298-1.02 1.887.415-.176.796.005 1.358.967 1.41.163.687.286 1.445-.115 2.025-.177.258-.725.05-.88.321-.224.391.101.936-.077 1.35-.132.307-.647.326-.776.633-.227.55.038 1.238-.223 1.774-.234.482-1.024.588-1.172 1.104-.34 1.182.094 2.492-.208 3.683-.074.293-.78.086-.823.385-.1.699.16 1.58-.421 1.884-1.439.757-1.583 2.805-2.864 3.904-.257.96-.677 1.195-1.171 1.103l.046-1.58c.358-.055.442-.237.57-.602l-.084-7.21c-.148-1.054.309-1.387 1.179-1.227 1.07.145 1.393-.104.965-.745l-1.761-1.517-.028-4.93.681-.392.25-2.204c.16-1.4 2.345-1.723 2.367-.172zm17.205 10.278c-.773.755-1.269 1.781-2.056 2.587-.789.805-1.87 1.39-2.643 2.145l.7 1.111c-.488 1.146-.978 2.29-1.467 3.437-1.179 1.297-1.307.863-1.283.181.053-1.084.397-2.069 1.382-2.829.253-.424.394-.918-.109-.771-.158-.161-.359-.19-.606-.085.194-.26.265-.771.066-1.054-.258-.113-.628.008-1.022.133-.037-.274-.087-.447-.123-.721-.594-.246-.837-.339-1.128.14l-4.64 5.5c-.81.498-1.245.406-1.308-.278l.404-2.63.63-.32a3.74 3.74 0 0 1 .046-1.732c.052-.61.287-.868.706-.776l.352-1.714 1.241-.338c.453-.195.707-.47.76-.825-.137-.215-.195-.5-.637-.443-.425-1.494-.295-2.865.084-4.179l.877-.204c.744-4.712 7.167-4.021 5.793.226-.308.646-.617 1.29-.924 1.937-.24.502.197.872.633.495.63-.547 1.09-1.265 1.636-1.897.269-2.059 1.13-3.183 3.095-1.61.554 1.605.603 3.138-.46 4.514zm-5.947 3.617.779.044c-.262.296-.28.606-.053.93-.553-.157-1-.37-.726-.974z" fill="#1B1918"/>
        <path d="m137.35 173.748-4.746-3.708.729-.933 4.686.534-3.17-2.475.697-.892 4.747 3.709-.753.961-4.59-.505 3.096 2.418-.697.891zm-1.303-8.092.645-1.03 2.767 1.727c.439.274.732.44.877.496a.971.971 0 0 0 .7 0c.232-.088.437-.275.616-.564.183-.291.262-.55.235-.774a.825.825 0 0 0-.273-.541c-.156-.142-.436-.337-.84-.589l-2.825-1.766.644-1.03 2.683 1.677c.613.382 1.03.68 1.247.894.22.214.368.45.449.71.08.257.093.545.04.86-.052.315-.206.675-.459 1.08-.305.488-.592.821-.862 1.003-.271.182-.541.29-.812.323a1.67 1.67 0 0 1-.746-.064c-.336-.115-.788-.352-1.36-.71l-2.726-1.702zm9.622-3.99-5.319-2.828 1.203-2.26c.301-.569.57-.955.802-1.162.232-.207.512-.323.838-.348.327-.024.646.047.961.214.399.212.667.506.803.878.134.37.111.81-.07 1.312.26-.16.51-.272.753-.337s.638-.115 1.188-.152l1.384-.098-.684 1.283-1.57.162c-.56.055-.92.105-1.082.15a.954.954 0 0 0-.394.205c-.1.092-.215.262-.347.51l-.115.216 2.22 1.18-.571 1.075zm-2.498-2.707.422-.793c.274-.516.424-.848.449-1a.662.662 0 0 0-.066-.421.79.79 0 0 0-.34-.32.728.728 0 0 0-.511-.088.747.747 0 0 0-.423.294c-.058.082-.203.339-.435.774l-.445.837 1.349.717zm5.413-2.858-5.46-2.545 1.887-4.045.925.43-1.374 2.944 1.21.565 1.278-2.74.919.429-1.278 2.739 1.486.692 1.422-3.047.92.429-1.935 4.15zm.696-18.644.542-2.345c.108-.466.207-.808.3-1.027.09-.22.217-.404.382-.556.165-.152.362-.263.595-.336a1.35 1.35 0 0 1 .728-.023 1.42 1.42 0 0 1 1.083 1.119c.186-.333.428-.568.721-.703.297-.133.614-.16.953-.083.266.062.512.183.735.366.223.183.387.398.487.647.1.25.133.536.095.86-.024.2-.12.682-.29 1.438l-.462 1.997-5.869-1.354zm1.252-.96 1.357.313.18-.776c.106-.462.165-.75.176-.866a.795.795 0 0 0-.098-.526.634.634 0 0 0-.419-.279.66.66 0 0 0-.477.047c-.136.074-.24.208-.309.4-.04.113-.124.449-.253 1.006l-.157.68zm2.333.538 1.569.363.254-1.096c.098-.428.15-.701.152-.82a.754.754 0 0 0-.134-.485c-.1-.14-.253-.235-.461-.282a.79.79 0 0 0-.477.025.745.745 0 0 0-.356.307c-.093.148-.201.494-.325 1.032l-.222.956zm3.76-4.331-5.932-1.045.211-1.198 5.933 1.046-.212 1.197zm.542-2.512-5.916-.831.169-1.204 4.91.69.422-2.993 1.005.14-.59 4.198zm-39.987 57.974c-.352-.503-.572-.977-.66-1.423a2.849 2.849 0 0 1-.015-.998c.055-.335.164-.633.327-.89.216-.347.525-.659.927-.94.728-.51 1.466-.691 2.218-.545.753.144 1.41.62 1.973 1.422.558.797.777 1.572.659 2.324-.119.752-.54 1.383-1.264 1.89-.733.514-1.474.698-2.22.555-.747-.145-1.395-.61-1.945-1.395zm1.003-.75c.39.556.818.89 1.276.998.461.107.89.021 1.287-.256.396-.279.623-.649.677-1.115.053-.464-.12-.98-.52-1.554-.396-.564-.816-.898-1.258-1.005-.443-.105-.869-.013-1.28.274-.41.289-.643.662-.697 1.119-.054.457.117.969.515 1.538zm6.462-.886-4.03-4.475 1.903-1.713c.478-.43.862-.703 1.151-.818.29-.115.592-.128.907-.04.316.09.592.265.83.53.302.335.454.703.454 1.099-.001.394-.172.8-.515 1.21.3-.062.574-.083.824-.06.25.022.639.11 1.167.263l1.335.38-1.08.975-1.532-.387c-.546-.139-.902-.215-1.07-.228a.939.939 0 0 0-.438.057c-.126.054-.292.174-.502.36l-.182.165 1.683 1.867-.905.815zm-1.421-3.397.667-.602c.435-.39.69-.652.765-.786a.66.66 0 0 0 .083-.417.797.797 0 0 0-.211-.419.724.724 0 0 0-.45-.255.748.748 0 0 0-.499.13c-.081.057-.306.25-.672.58l-.705.634 1.022 1.135zm6.757-4.754-2.15-1.03.968 2.173 1.182-1.143zm-34.423 15.866 1.182-.273.858 3.714c.113.486.154.87.13 1.15-.035.368-.18.691-.434.966-.255.279-.628.473-1.121.586-.58.134-1.063.076-1.45-.178-.387-.251-.655-.69-.802-1.317l1.088-.386c.09.333.195.56.312.68.177.18.396.24.657.18.264-.061.434-.18.509-.357.074-.174.057-.5-.053-.976l-.876-3.79zm9.151 3.417-1.244.454-.962-1.107-2.263.823.001 1.456-1.212.441.145-6.461 1.208-.44 4.327 4.834zm-2.92-1.472-1.544-1.817v2.38l1.545-.563zm11.963-5.268-1.81-1.553.373 2.35 1.437-.797zm-42.894 10.085 1.047-5.93 1.197.21-1.046 5.93-1.198-.21zm-30.75-13.2 3.455-4.933.996.698-1.534 2.19 3.546-.781 1.34.936-3.203.622-.15 4.383-1.29-.903.266-3.264-1.386.258-1.044 1.492-.996-.698zm9.772 6.464-1.11-.721.303-1.434-2.02-1.311-1.161.878-1.082-.704 5.248-3.772 1.08.7-1.258 6.364zm-.582-3.217.522-2.327-1.9 1.432 1.378.895zm-39.9-54.127.418 1.113c-.366.17-.611.385-.734.645-.123.258-.138.565-.042.923.101.378.258.642.47.79.212.149.425.195.639.138a.54.54 0 0 0 .317-.216c.077-.106.123-.27.139-.49.012-.15.012-.487.003-1.008-.013-.67.061-1.165.22-1.478.224-.444.566-.728 1.027-.85.297-.08.596-.07.9.028.302.1.564.29.784.568.219.281.389.643.508 1.09.197.732.183 1.324-.037 1.778-.222.455-.598.763-1.127.925l-.366-1.16c.285-.13.471-.297.558-.497.087-.2.086-.465-.003-.795-.092-.342-.233-.591-.426-.747a.434.434 0 0 0-.41-.09.464.464 0 0 0-.307.27c-.085.18-.118.576-.099 1.184.018.608-.008 1.067-.079 1.38-.072.312-.21.578-.42.8-.208.223-.497.382-.864.482-.334.088-.671.08-1.01-.028a1.723 1.723 0 0 1-.86-.611c-.232-.3-.416-.705-.552-1.21-.197-.735-.18-1.345.055-1.83.235-.485.667-.854 1.298-1.104zm.275 7.72 4.76-1.546-.553-1.699.97-.314 1.48 4.55-.971.315-.55-1.695-4.76 1.546-.376-1.157zm10.046 21.03-.662-1.148.923-1.138-1.204-2.085-1.433.253-.645-1.117 6.39-.98.642 1.114-4.01 5.1zm.944-3.13 1.521-1.838-2.343.414.822 1.423zm.016 4.425 4.196-2.725-.973-1.497.855-.557 2.607 4.015-.856.554-.97-1.495-4.196 2.725-.663-1.02zm137.224-42.094-5.965-.839.17-1.203 5.965.837-.17 1.205zm.51-3.912-4.977-.522-.187 1.776-1.013-.107.5-4.76 1.014.107-.186 1.773 4.975.523-.126 1.21zm.57-8.789-.071 1.322-1.394.453-.126 2.404 1.341.567-.068 1.289-5.892-2.658.067-1.284 6.142-2.093zm-2.498 2.111-2.276.712 2.19.93.086-1.642zm.147-6.771.331-1.19c.665.158 1.162.44 1.497.849.333.408.511.937.534 1.582.028.8-.222 1.466-.75 2-.53.533-1.266.816-2.213.85-1.001.034-1.789-.198-2.362-.695-.572-.498-.873-1.168-.902-2.011-.026-.736.17-1.342.59-1.817.248-.283.61-.501 1.088-.655l.329 1.193c-.31.082-.552.238-.725.471a1.28 1.28 0 0 0-.242.833c.015.445.19.803.52 1.07.328.265.852.386 1.57.36.76-.026 1.299-.18 1.611-.466.315-.284.463-.646.447-1.083a1.21 1.21 0 0 0-.337-.823c-.213-.226-.542-.382-.986-.468zm2.161-2.498-6.009.42-.085-1.213 6.01-.42.084 1.213zm-6.363-4.09-.127-1.206 3.792-.398c.495-.052.883-.048 1.158.01.36.08.663.263.906.55.245.285.392.68.445 1.183.062.591-.055 1.064-.353 1.418-.297.353-.766.566-1.406.634l-.25-1.126c.34-.05.58-.125.712-.227.201-.153.287-.364.26-.63-.03-.27-.126-.453-.292-.548-.165-.095-.491-.117-.976-.066l-3.87.407zm-.15-2.478-.19-1.2 3.222-.511c.511-.08.84-.149.987-.201a.971.971 0 0 0 .528-.46c.117-.217.15-.494.096-.829-.054-.34-.164-.588-.332-.739a.831.831 0 0 0-.56-.23c-.21-.004-.55.033-1.02.108l-3.292.52-.19-1.2 3.125-.494c.714-.114 1.224-.162 1.53-.143.304.018.571.097.802.24.23.143.43.351.596.623.167.272.287.646.361 1.117.09.567.094 1.008.009 1.323a1.886 1.886 0 0 1-.401.776c-.182.203-.385.35-.607.44-.328.133-.824.252-1.49.357l-3.174.503zm-1.265 52.328-5.66-2.06.417-1.144 2.227.81.815-2.238-2.227-.81.415-1.143 5.661 2.06-.416 1.142-2.475-.9-.815 2.238 2.475.901-.417 1.144zm3.845-11.059-.41 1.26-1.464.076-.743 2.29 1.148.896-.399 1.226-5.003-4.091.397-1.224 6.474-.433zm-2.958 1.394-2.382.1 1.874 1.463.508-1.563zm-18.655 37.423-.952.92-1.33-.618-1.73 1.672.593 1.329-.929.896-2.496-5.962.925-.893 5.92 2.656zm.61-.67-4.576-3.84.781-.93 3.8 3.187 1.943-2.316.779.652-2.726 3.247zm-27.066 19.215-.48-.986 1.13-4.898-2.522 1.23-.448-.915 3.964-1.933.414.85-1.184 5.096 3.08-1.502.445.912-4.399 2.146zm10.074-5.163-1.157.643-1.123-.943-2.106 1.168.228 1.438-1.128.625-.868-6.404 1.125-.623 5.03 4.096zm-43.464 9.474.63-5.99 1.177.124 2.031 4.257.42-3.999 1.125.118-.63 5.989-1.215-.127-2.003-4.16-.412 3.905-1.123-.117zm11.731.397-1.323.045-.573-1.349-2.408.084-.448 1.385-1.29.046 2.135-6.1 1.286-.046 2.621 5.935zm-2.322-2.303-.907-2.205-.735 2.263 1.642-.058zm6.802-.24 1.21.249c-.11.672-.358 1.189-.743 1.551-.383.36-.898.574-1.542.643-.794.083-1.477-.12-2.045-.608-.57-.49-.905-1.207-1.003-2.148-.106-.997.072-1.798.527-2.405.457-.603 1.105-.952 1.945-1.04.732-.077 1.35.077 1.853.463.3.226.542.573.73 1.038l-1.169.412a1.256 1.256 0 0 0-.52-.69 1.267 1.267 0 0 0-.847-.183c-.444.046-.788.243-1.03.591-.244.347-.327.878-.252 1.592.079.758.272 1.283.578 1.575.306.294.677.416 1.113.37.322-.033.587-.164.797-.393.21-.229.342-.568.398-1.017zm2.584 1.822-.942-5.947 1.2-.19.943 5.947-1.201.19zm-38.878-8.561c.239-.566.524-1.003.857-1.316.245-.227.525-.409.838-.54.314-.13.622-.197.929-.194.408-.001.836.096 1.287.287.819.347 1.364.877 1.64 1.593.275.714.22 1.523-.162 2.425-.38.896-.921 1.491-1.622 1.79-.702.3-1.46.276-2.273-.069-.826-.35-1.375-.88-1.647-1.588-.273-.71-.222-1.506.153-2.388zm1.167.451c-.265.628-.322 1.166-.17 1.613.153.447.452.764.9.954.444.189.879.184 1.302-.017.423-.2.77-.62 1.042-1.263.27-.635.332-1.168.188-1.6-.147-.43-.45-.743-.911-.94-.462-.195-.901-.194-1.32.002-.414.197-.759.612-1.03 1.251zm4.19 4.867 1.96-5.693 2.422.833c.609.21 1.032.413 1.273.61.24.198.4.455.475.773.075.32.055.646-.061.983-.147.427-.395.738-.74.93-.348.19-.785.238-1.31.137.2.23.35.46.452.69.102.23.213.613.335 1.15l.314 1.35-1.375-.474-.405-1.525c-.142-.545-.248-.892-.317-1.045a.952.952 0 0 0-.264-.356c-.108-.085-.293-.173-.557-.263l-.233-.08-.818 2.376-1.151-.396zm2.283-2.89.85.292c.55.19.903.287 1.057.289a.669.669 0 0 0 .406-.13.793.793 0 0 0 .263-.389.72.72 0 0 0 .006-.516.749.749 0 0 0-.357-.373c-.088-.045-.366-.148-.832-.308l-.897-.309-.496 1.444zm4.956-.971 2.174.462c.49.105.855.221 1.098.351a2 2 0 0 1 .771.731c.192.313.313.67.362 1.073.046.404.013.882-.105 1.434-.102.485-.252.89-.447 1.215-.238.398-.522.7-.852.906-.249.158-.561.255-.936.293-.28.028-.64-.006-1.08-.1l-2.238-.474 1.253-5.891zm.977 1.25-.829 3.9.887.19c.333.069.577.103.732.096.203-.007.38-.055.533-.142.152-.088.295-.257.432-.503.136-.247.253-.598.35-1.054.097-.455.13-.812.102-1.073a1.376 1.376 0 0 0-.215-.642 1.175 1.175 0 0 0-.493-.395c-.158-.073-.48-.16-.966-.263l-.533-.114zm-41.85-27.061c.485-.378.947-.624 1.388-.735.326-.08.659-.103.996-.067.337.037.64.13.906.28.357.199.686.49.988.877.547.7.767 1.428.66 2.186-.105.759-.544 1.44-1.317 2.043-.767.6-1.529.858-2.287.78-.758-.079-1.41-.466-1.953-1.162-.552-.706-.776-1.436-.672-2.188.106-.754.538-1.425 1.291-2.014zm.805.961c-.538.42-.847.863-.933 1.327a1.54 1.54 0 0 0 .325 1.27c.298.382.68.589 1.147.619.467.028.974-.172 1.525-.6.544-.426.856-.862.939-1.31.081-.447-.034-.868-.34-1.263-.31-.396-.695-.607-1.155-.637-.459-.03-.962.167-1.508.594zm1.22 6.367 4.51-3.918.797.917-3.743 3.254 1.984 2.28-.766.667-2.782-3.2zm5.514 1.667c.426-.442.85-.748 1.27-.92.312-.125.638-.194.978-.205.339-.01.651.04.936.151.382.147.747.39 1.1.73.639.618.958 1.308.958 2.075.003.765-.339 1.501-1.02 2.206-.675.7-1.395 1.062-2.156 1.09-.762.028-1.46-.266-2.096-.879-.645-.623-.968-1.314-.97-2.074 0-.76.335-1.486 1-2.174zm.928.84c-.472.49-.719.973-.737 1.444a1.54 1.54 0 0 0 .497 1.213c.348.336.756.488 1.223.452.465-.036.941-.304 1.426-.806.48-.496.728-.971.748-1.427.018-.453-.153-.855-.513-1.203-.362-.348-.772-.505-1.232-.472-.46.035-.93.3-1.412.8zm3.184 4.394.97.688c-.208.347-.29.661-.248.946.043.282.202.545.482.788.295.256.572.388.832.392.258.005.46-.075.605-.243a.54.54 0 0 0 .144-.356c.004-.13-.05-.292-.16-.484-.074-.13-.261-.41-.56-.838-.387-.549-.601-.998-.645-1.349-.063-.493.063-.918.375-1.279.203-.23.456-.39.763-.478.306-.087.63-.075.968.034.338.11.682.315 1.03.619.572.496.892.994.964 1.494.07.501-.068.966-.417 1.397l-.953-.757c.164-.268.226-.51.186-.724-.041-.215-.19-.434-.448-.658-.267-.232-.524-.36-.77-.381a.46.46 0 0 0-.494.55c.03.198.224.544.58 1.037.354.494.59.89.706 1.188.116.299.15.598.1.9-.049.3-.198.594-.447.88-.226.26-.511.442-.854.543a1.72 1.72 0 0 1-1.054-.026c-.361-.12-.739-.352-1.134-.695-.574-.5-.901-1.015-.979-1.548-.076-.534.075-1.082.458-1.64zm4.512-3.56.703.613-.067.75.761-.147.701.608-1.437.357-.806-.701.145-1.48zm-27.57-31.91c.565-.238 1.075-.356 1.531-.35.335.008.662.071.979.194.316.124.584.292.803.505.293.283.534.65.726 1.102.347.816.37 1.577.072 2.283s-.898 1.25-1.801 1.633c-.896.38-1.7.433-2.411.161-.712-.273-1.241-.815-1.587-1.629-.35-.824-.377-1.587-.081-2.286.298-.7.888-1.238 1.77-1.612zm.527 1.138c-.627.266-1.042.614-1.243 1.041-.201.428-.206.864-.017 1.31.19.446.505.745.95.894.443.149.985.088 1.627-.185.636-.269 1.05-.61 1.246-1.02.194-.412.193-.848-.002-1.31-.197-.462-.514-.765-.95-.914-.435-.147-.972-.087-1.61.184zm-.5 6.454 5.459-2.545.77 1.65-3.263 2.726 4.18-.758.771 1.652-5.458 2.546-.477-1.023 4.296-2.003-4.803.92-.494-1.061 3.793-3.084-4.297 2.002-.477-1.022zM5.496 92.737l5.949.943-.305 1.926c-.117.73-.222 1.202-.317 1.414a1.58 1.58 0 0 1-.717.765c-.336.182-.74.236-1.214.162-.364-.06-.662-.174-.889-.346a1.65 1.65 0 0 1-.507-.598 1.778 1.778 0 0 1-.183-.666c-.01-.297.026-.716.112-1.26l.124-.783-2.244-.356.19-1.2zm4.751 1.984-1.687-.267-.104.657c-.075.473-.095.795-.058.965a.802.802 0 0 0 .234.42c.118.112.264.181.44.21a.785.785 0 0 0 .567-.106.84.84 0 0 0 .339-.44c.051-.14.109-.426.177-.858l.092-.581zm-5.532 3.827 5.978.735-.312 2.54c-.078.639-.189 1.096-.333 1.372a1.38 1.38 0 0 1-.657.626 1.74 1.74 0 0 1-.973.144c-.45-.055-.804-.233-1.064-.532-.26-.299-.396-.716-.407-1.25a2.814 2.814 0 0 1-.582.585c-.203.148-.554.336-1.054.567l-1.256.587.177-1.442 1.408-.713c.504-.254.822-.43.957-.529.136-.099.233-.21.294-.332.06-.122.107-.322.14-.6l.03-.243-2.494-.307.148-1.208zm3.302 1.632-.11.892c-.071.58-.091.944-.06 1.095a.653.653 0 0 0 .212.368c.11.096.253.155.433.178.202.024.37-.01.507-.102a.751.751 0 0 0 .29-.425c.025-.097.068-.39.129-.88l.115-.94-1.516-.186zm-3.857 4.556 6.01.421-.086 1.212-6.009-.42.085-1.213zm-.072 4.182 6.096-1.942-.047 1.32-4.509 1.366 4.405 1.629-.046 1.29-5.944-2.366.045-1.297zm.102 9.11-.023-1.322 1.36-.55-.044-2.407-1.377-.473-.021-1.29 6.063 2.241.022 1.285-5.98 2.517zm2.343-2.28 2.22-.869-2.249-.774.029 1.644zm-2.06 3.918 4.984-.435-.155-1.78 1.016-.089.417 4.767-1.016.09-.155-1.777-4.985.437-.107-1.213zm.409 3.958 5.964-.837.164 1.17-3.64 3.002 3.984-.56.158 1.12-5.965.837-.17-1.21 3.552-2.95-3.89.548-.157-1.12zm1.99 11.54-.252-1.299 1.243-.777-.459-2.364-1.438-.226-.247-1.266 6.361 1.154.245 1.262-5.452 3.516zm1.913-2.653 2.035-1.241-2.35-.371.315 1.612zm9.95-66.343c-2.873.415-.491 1.543-1.357 2.381-.08.076-1.057 1.327-1.355.675-.898-1.878-.743 1.15-.758 1.977-.014.828-.147 1.059.386 1.611.202.21-.213 1.806-.229 2.737-.015.853-1.352.494-1.332-.643.014-.75-.935-1.103-.921-1.956.014-.802-1.57-.261-1.223-.952.429-.82 1.247-1.893 2.053-2.267.73-.35.617-1.282.838-2.105.167-.645 2.313-2.366 2.682-2.721.367-.356 1.444.076 1.522.077.205.004.249.523.244.755-.002.078-.16.307-.187.333-.025.026-.415.123-.363.098zm48.55 18.555c1.802-.879-1.055 4.747-2.461.528 0-.089.044-1.583-.396-1.144-.878.88-1.89-2.899-2.99-.659-.22.44-3.56-.966-3.91-1.142-1.056-.528-.749-.483-1.408-1.142-.704-.704-1.23-2.066-1.89-2.725-.308-.308-1.23-.044-1.494-.044-.396 0 .395-1.274.527-1.318 1.758-.88 1.231.834 2.55.175.483-.22 2.153-1.186.79.176-1.318 1.318.66.352.792.352.351 0 3.868.087 2.242 1.714-1.011 1.01 1.274.087 1.626.087.748 0 1.626 1.055 2.066 1.494.308.309 3.253 1.32 3.253 1.758 0 .615-.528.835-.528 1.363 0 .835 1.32.396 1.231.527zM81.5 39.203c.797 0 1.447.845 1.447 1.882 0 1.036-.65 1.88-1.447 1.88-.795 0-1.445-.844-1.445-1.88 0-1.037.65-1.882 1.445-1.882zM49.646 62.541c3.084-.877 1.888-.37 1.888 2.166 0 2.121-.37 2.812.275 4.794.184.6 1.012 2.627 1.38 2.812 1.795.876 1.105.185 1.105 2.028 0 1.06-3.359 3.826-4.326 1.89-.276-.553-1.472-.415-1.748-.968-.414-.876-1.518-2.996-1.243-3.549.553-1.106-.414-1.06-.414-2.351 0-2.812.322-6.96 3.083-6.822zm51.792-4.18c2.324-1.918 1.504-.069 3.691-.069.956 0 1.504-2.602 2.598-1.507 1.503 1.507 3.896 2.877 5.399 4.383 2.94 2.944.206 6.367.206 9.928 0 1.643-2.051 3.355-2.53 4.382-.41.821-3.28 2.807-3.213 2.807-.478.137-3.28 1.233-2.938 1.575 2.119 2.122-3.965 2.944-4.65 3.629-.819.822-2.118-.274-2.801-.274-.137 0-.137.41-.137.548 0 1.711-1.368.205-1.64-.07-.547-.546 0 1.37-.41 1.781-.889.89-2.188-1.643-1.094-2.739 1.504-1.506 1.435-.958 2.87-.958.479 0 .342-1.712.616-1.985.341-.344.41.89.888.89.137 0 .547-1.438.685-1.576 1.298-1.3 2.665-2.875 4.647-2.875.821 0 1.162.821 1.983 0 .477-.48 1.572-2.67 2.46-2.67 3.076 0 .068-4.177-.41-4.657-.547-.547-.273-1.437-1.093-2.26-.137-.135-1.983-1.643-2.05-1.643-.275-.546-.069-.89-.822-.89-2.802 0 1.504-2.807-1.434-2.807-1.026 0-1.504-.616-2.051-1.164-.206-.204.82-1.711 1.23-1.78zm-4.58-6.573c.342-.412.684-.548 1.23-.548.41 0 1.846-1.028 1.846 0 0 .754.274 1.438 1.025 1.438.479 0 1.436.068 1.709-.206.41-.41.89.548.683.96-.546 1.094-1.913.272-2.939.752-.204.069-.546.273-.751.48-.547.547-1.163.89-1.847.89-.272 0-1.298-.137-1.502-.343-.274-.274-.41-.274-.41-.822 0-.342.546-.821.683-1.163.068-.206 0-1.576.273-1.438zm-36.725 2.827c.479 0 .734.765 1.115.638.734-.224 1.434-1.337 2.231-1.72.51-.255 1.178-1.02.477-1.37-1.305-.637-2.803.924-3.823 1.242-1.082.35-1.975.032-2.995.7-1.05.702-2.039 2.9.128 2.9.733 0 1.083-1.18 1.275-1.752.222-.733.892-.669 1.592-.638zm60.996 40.47h-7.602c-1.32 0 .616 1.902.773 1.871.799-.154 1.515.555 1.515 1.132v3.552c0 1.119 1.222 1.9 2.125 2.35.623.31 1.158.166 1.16-.306l.009-5.596c.001-.32.352-1.242.957-1.132.315.059 2.29-1.256 1.063-1.87zm3.413 3.996c1.035-.14.599 2.144-.456 1.693-.396-.17-.333.755-.272 1.024.207.906 1.424.862 1.424 2.088 0 .598-1.522 1.459-.894 2.09 1.323 1.324 3.904-.2 4.5-1.393.562-1.127 1.125-1.558 1.125-3.083 0-2.187-.628-3.745-2.945-3.745-.727 0-1.49-.627-2.515-.63-2.59-.009-1.575 2.17.033 1.956zm9.71-3.2c3.692-.028 3.545 3.343 2.955 6.093-.35 1.624-2.124 3.23-3.186 4.293-.369.368-4.11 1.753-2.309-.047.231-.23 1.985-2.03 2.216-2.123.83-.415 1.94-3.692 1.94-4.755 0-1.338-.647-1.107-1.201-1.66-.277-.279-.646-.186-.646-.832 0-.231-.277-1.108.23-.97zm-28.468 1.872 2.02-.006v8.513h1.853c1.46 0 3.008 1.924 3.008 3.568-.02 3.59-.001 7.679 0 11.026 0 .409-.542-.05-.542.358.005 4.384.02 8.732.02 13.413-.749.239-.847.502-1.802.502-.329 0-.494-.89-1.086-.89-1.449 0-.823 1.089-2.174 1.089-1.021 0-1.152 0-1.152 1.187 0 .494.428 1.088.757 1.418.462.462.297 1.913.89 2.21.527.264 2.074.297 2.081 1.082 8.203 0 11.852-.125 19.618-.125 15.646 0 19.605-17.701 6.362-25.217-.483-.275-3.542-5.72.814-7.62 6.718-3.41 6.789-14.628-3.442-14.275h-27.225c-1.132 0-1.715.751-1.715 1.883 0 1.131.583 1.884 1.715 1.884zm16.852 13.538c0 7.02.305 14.45.305 21.471 9.08 1.613 10.54-4.907 8.496-12.657-1.232-3.82-5.12-6.342-8.8-8.814zm-12.979-11.84v5.01h3.973c1.389 0 3.033 1.644 3.033 3.033v31.773h11.432c25.564-4.838 9.261-24.547-2.126-27.598 16.602 9.587 12.795 24.02.938 25.133h-7.105l-.035-27.589c-.607-.95-2.235-2.025-1.196-3.066.208-.208-.277-.659-.277-.659-.242-.243-1.004.312-1.316-.312-.312-.624-1.108-1.458-1.975-1.458-.415 0-2.077-2.116-2.39-2.428-.727-.729-1.661-1.908-2.956-1.839zm-67.68 8.542c0-1.06-.984-2.73-.454-3.26 1.059-1.06 4.162-1.515 4.162.834 0 .834-1.59 2.956-1.59 3.866 0 2.274-.151 5.078-.151 7.503 0 2.35-.226 5.457-.226 6.974 0 8.033-.303 8.943-4.844 13.491-1.21 1.213-1.362 0-2.043 0-.908 0-4.616 1.364-5.372-.227-1.437-2.957 1.967-.758 2.95-1.744 3.255-3.26 4.617-3.183 4.617-9.398v-20.086c0-.606 1.134-.227 1.134.076l-.075 15.537c0 3.64.908 8.945-.454 11.673-.53 1.137-2.572 1.592-1.74 2.425.983.986 4.16-4.092 3.632-4.623-.303-.303.226-10.61.226-12.128 0-1.515.38-4.85-.226-6.138-.455-.986.529-2.047.529-2.653 0-.076.53-2.426-.076-2.122zm2.805-12.784c.475 0 .687-.422.898-.422.106 0 .582-.053.74-.053 1.215 0 1.426 1.32 2.06 1.953.053.053 1.003.476 1.003 0 0-.317-.053-.844-.053-1.056 0-.21-.95-.95-1.162-1.162-.21-.21-.845-.527-1.267-.739-.37-.158-1.849 0-2.166.16-.158.052-.527.632-.527.791 0 .21 0 .37.105.475 0 0 .37.158.37.053zm-11.46 2.217c1.003 0 2.693 1.373 3.38.687.633-.634 1.478-.845 2.694-.845.686 0 2.059-1.268 2.323-1.003.317.317.317.634.475 1.003.212.423 1.321 1.004.74 1.584-.687.687-1.11 2.218-2.43 2.535-1.268.317-4.278 2.112-5.757.634-.21-.212-1.373-.212-1.373-.475 0-.212-2.007-4.067-.052-4.12zm-6.18-.58c-.264 0-.211 0-.318.105 0 0-.105.317-.158.37-.052.053-.159.212-.317.212-.052 0-.052.052-.158.052-.211 0-.74.158-.792.264-.054.106-.106.633-.054.686 0 0 .16.16.212.16.105 0 .423.104.634.104h.58c.37 0 .53-.264.74-.475.053-.052.053-.158.053-.158.106-.106.317-.264.422-.37.054-.053.317-.158.317-.37 0-.158-.263-.527-.422-.527 0 0-.37 0-.422-.053-.106-.106-.265 0-.317 0zm-1.677-4.814c4.108 0 9.144 3.862 14.132 1.368 3.325-1.661 12.176-2.346 12.176 2.983.097.781.586 2.639.048 3.177-.44.44-.636.977-.636 1.858 0 .44-1.76 1.515-2.053 2.15-.147.342-.538 1.028-.538 1.467 0 .147-.44.342-.489.391 0 0-.49.587-.147.587 0 2.542-.098 5.33-.098 8.017 0 .587-1.516 2.543 0 2.543.391 0 .245.879-.293.879-.554 1.441.087 3.403.087 4.823 0 1.453-.102 3.076-.102 4.53-.013 2.777-.057 7.177-1.833 8.955-1.641 1.646-3.727 2.579-5.28 4.135-1.465 1.466.532 1.866-.355 3.689-.666 1.378-5.104 2.134-5.104-.223 0-.933 1.953-1.021 1.242-2.445-1.73-.844-5.28-1.332-6.257-3.289-.665-1.378-1.646-2.845-1.686-4.756-.05-2.332 1.102-2.412 1.538-1.336.49 1.21 2.03 1.553 3.122 1.515 1.27-.047 2.854-.115 2.75-2.357-.047-1.066.889-2.222.889-3.867-.222-1.512.088-3.38.088-4.89l.178-13.957c-.134-.979-.799-2.09-1.376-2.668-.576-.578-1.553-.266-1.864.355-.62 1.29-2.174.311-2.707-.222-.576-.578-2.263.889-3.106.889-.922.294-2.813.412-3.719-.022-.63-.316-.708-1.893-1.693-1.893-1.26 0-1.457-3.314.591-3.314.944 0 .709-2.681.119-2.958-3.978-1.972-2.403-6.192 2.376-6.114zm54.774 62.146-.286-29.646-.46.155c-21.871 6.037-18.624 20.76.445 29.602l.301-.11zm-.36-37.249-.214-22.158-.192.01c-17.962 7.932-15.464 15.994.078 22.147l.328.001zm3.457-22.371-.216 22.38.98.002c14.341-6.93 14.984-16.682 0-22.428l-.764.046zm-.28 28.925-.287 29.765.06-.02c19.448-9.224 19.133-23.417.9-29.972l-.673.227zm15.128-22.333c-.348 0-.908-.14-1.117.07-.07.07-.42 1.187-.42 1.396v.63c.14.418.21.977.56 1.117.07 0 .21.418.28.418.21.07.35.419.35.768 0 .21.487.42.697.42.21 0 .558-.07.558-.28 0-.28.63-.768.84-.977.069-.07-.14-.979-.14-.979 0-.14-.56-1.186-.629-1.186-.21-.07-.21-1.328-.979-1.397zm1.03 39.788c-.453.226-.565.566-.793.793l-.226.226s.114.228-.113.228c-.113 0-.454.451-.454.451h-.34c-.112.114-.34.34-.34.568 0 0-.226.453-.226.565 0 .114-.226.34-.34.454-.113.113-.567.793-.567.906v.566s.567.226.793.226c.34 0 .68 0 .68-.452 0-.227.567-1.133.68-1.246.114-.114.567-.68.68-.68.113 0 .567-.453.567-.453.226-.114.567-.793.793-1.02.114-.113-.114-.679-.114-.679l-.226-.113s-.114-.228-.453-.34zM79.94 191.122c-.2-1.113-.2-2.634-.2-3.402 0-.677-.453-1.085-.453-1.898 0-1.132.993-1.086-.09-2.171-.587-.589-2.935-.317-2.212-1.81.82-1.68 2.207-.957 3.51-1.185l-.2-20.662c-.367-.09-.743-.175-1.131-.256-11.57 5.269-18.736 10.524-17.914 17.364 3.694 1.226 4.198 5.628.532 4.136-11.981-2.013-6.114-15.793 12.976-24.018-23.81-12.158-23.689-29.324.435-36.555-19.383-5.713-20.676-19.715-.45-29.587l-1.625.05c-1.967-.845-4.013-1.938-6.29-2.093-1.692-.115-2.89-1.393-3.743-1.82-3.523-1.76-6.604-4.072-9.576-5.501-9.245-4.622-13.427-14.965-6.162-22.228 1.76-1.76 10.235-6.161 10.235-8.252 0-2.311 5.613-.88 6.714-1.98 3.852-3.852 4.292 4.4 4.512 5.281.11 6.602-12.877 1.65-12.877 10.894 0 10.673 4.843 9.902 10.676 15.735 1.04 1.04 8.481 4.09 11.06 5.504 1.07.586 1.511 1.007 1.931 1.156l-.275-28.49-4.599-9.533c.58-.776.424-1.208 1.37-1.75.546-.315-.354-2.049-1.005-2.044h-2.053v-1.983c0-1.19.97-2.158 2.159-2.158l1.82.001c.57 0 1.035-.465 1.035-1.033v-.166c0-1.445.898-2.688 2.164-3.2v-1.262c0-.708.578-1.285 1.285-1.285.709 0 1.285.577 1.285 1.285v1.263a3.457 3.457 0 0 1 2.165 3.2v.165c0 .568.465 1.033 1.034 1.033l1.821-.001c1.19 0 2.159.969 2.159 2.158v1.983H87.91c-.65-.005-1.551 1.73-1.005 2.044.947.542.789.974 1.37 1.75l-4.6 9.533-.259 26.914c4.663-2.53 11.57-6.343 12.143-6.8.856-.68 3.623-3.217 4.512-3.628.956 0 4.237-4.314 4.237-5.204 0-3.012-.409-3.63-3.144-4.997-2.05-1.028-1.094-2.74-2.05-3.699-1.914-1.916-.348-5.411-3.28-3.286-1.733 1.255-3.214 3.014-4.581 4.999l1.367-2.945-2.666 2.534c1.09-2.125 3.066-4.111 4.083-6.166 0-1.871-.26-6.962 2.079-8.105 1.506-.728 7.066-.572 8.158.52.572.57 3.845 3.583 4.469 3.896 3.586 1.766 4.976-.434 7.483 5.143 2.445 5.44.904 12.39-2.963 16.728-8.544 9.593-14.458 11.049-25.163 15.349 22.594 7.458 20.82 21.898.648 29.922 20.91 7.69 19.072 23.95-1.716 35.645 2.265-.027 8.96 6.838 10.707 8.857 2.344 2.706 4.192 9.318 11.443 5.219 2.187-1.237 8.442 3.11 5.998 3.11-1.111 0-4.33-.194-5.554.333-5.351 2.303-8.308 3.851-13.33-2.777-4.318-5.698-8.055-8.364-13.599-10.215l-.194 19.975c1.305.228 2.69-.496 3.512 1.185.722 1.493-1.626 1.221-2.212 1.81-1.084 1.085-.091 1.04-.091 2.17 0 .814-.451 1.222-.451 1.9 0 .767-.001 2.281-.202 3.4 36.351-1.023 65.74-37.725 65.74-82.586 0-10.52-1.62-20.59-4.564-29.858-.358-1.125.246-2.713-.263-3.754-.44-.9-.67-2.207-1.94-2.207-.747 0-.897-1.494-1.233-1.832-.598-.598-1.046.262-1.046-1.085 0-1.083-1.083-1.533-1.792-.823-.298.3-.261-1.159-.261-1.271 0-.412-.449-1.01-.15-1.309.448-.448 1.793-.411.636-1.57-.56-.561-1.083-.637-1.083-1.683 0-1.347 2.24-2.133 1.567-2.806-1.27-1.272-4.032.45-4.032 1.683 0 .935-1.904.337-1.904-.56 0-.637-.225-2.619.56-2.619.336-.673-.038-3.553 1.045-3.553.896 0-.56-2.169-.597-2.206-.523-.524-1.307-.673-1.755-1.123-.709-.71-1.008-1.608-1.642-2.244-.337-.336-.076-1.084.148-1.309.561-.56-.298-1.046-.298-1.084-1.195-.599-3.025-3.217-1.532-4.712.225-.225-.484-.749-.521-.749-.636-.299-.225-1.646-.449-1.757-.447-.225-2.463-1.31-2.39-1.834.286-2.034.796-4.754-3.733-5.422-.634-.093-.185-1.002-.603-1.28l-1.118.608-2.878 2.802c-.226.22-.674.028-.925.216-.41.306-.567.966-.984 1.263-.46.329-1.12.087-1.554.45-.424.357-.16 1.218-.607 1.545-.344.251-.894-.262-1.274-.072-.368.183-.276.908-.665 1.041-2.297.779-2.141-.638-1.942-2.866.076-.846-1.779-2.165-2.256-2.021-.808.241-1.28 1.013-2.124.995-.58-.013-1.19-.507-1.373-1.059-.22-.672.384-1.965.498-2.662.157-.965-.732-1.11-1.709.33-.792 1.17-2.745 1.178-2.62-.427.145-1.863 1.69-3.337 2.44-5.05.23-.528.21-1.156.497-1.656.905-1.58-.186-2.045-1.098-.804-1.353 1.842-2.555 3.8-4.141 5.426-1.72 1.763-2.694 1.133-2.95-.725-.081-.6-.234-1.154-.073-1.738.128-.463.744-.757.743-1.238-.003-1.128 1.363-3.446.198-3.491-1.128-.046-1.477 1.862-2.168 2.82-.313.432-.617.831-.825 1.322-.283.672-.441 1.402-.789 2.044-.259.481-.664.87-1.014 1.29-1.012 1.209-1.912.612-2.762-.108l.21-3.694.52-2.06.102-4.17c-.38-.665-.737-.686-1.072-.062l-.357 1.53c-.538.154-.738.502-.597 1.043l-.48 3.307c-1.063.826-1.433 2.087-1.27 3.465l-.85 1.1c-1.527 2.108-2.762 2.128-3.701.06-.862-1.895-.12-4.172-.455-6.225-.072-.442-.658-.68-.743-1.12-.202-1.039.093-2.13-.09-3.173-.304-1.724-1.232-1.42-1.266-.205l-.165 5.998c-.027.992-.46 1.962-.538 2.951-.134 1.705-.965 3.43-1.995 3.294-1.363-.178-2.153-.903-2.611-1.885-.215-.462-.183-1.234-.836-1.607-.481-.274-.155-1.108-.313-1.64-.275-.93-.483-1.882-.782-2.805a44.945 44.945 0 0 0-1.106-3.028c-.465-1.148-2.068-1.521-1.93-.379.21 1.73.649 3.471.449 5.147-.039.32.437.517.49.836a20.86 20.86 0 0 1 .264 3.653c-.054 5.695-3.66 1.166-4.44-1.195-.372-1.129-1.428-.577-1.311.6.045.459.714.672.811 1.124.164.768.061 1.58-.067 2.354-.178 1.088-1.974 1.407-2.716.453-1.59-2.046-2.567-4.721-4.252-6.844-.487-.612-.506-1.503-.956-2.143-.7-.994-1.416-1.108-1.147.07.336 1.473 1.759 2.606 2.088 4.23.16.789.295 1.662.63 2.392.306.66 1.04.948 1.161 1.666.364 2.16-.685 3.394-2.489 2.773-.51-.176-.494-1.095-1.003-1.27-.39-.133-1.336.203-1.108.544 1.477 2.209-.448 1.733-1.863 1.456-.56-.108-.397.94-.786 1.358-1.21 1.302-2.865.967-3.896-.086-1.922-1.963-3.819-3.687-5.51-5.442l-.11-.12c-1.382.445-2.636 1.398-3.84 2.559.255.666.407 1.373-.165 2.367-1.136.249-1.948.866-2.28 2.018-1.835.45-3.75.737-4.308 3.79-.172.634-.512.446-.817.422.204.479.437.945.22 1.625-.36 1.057-.532 2.163-.619 3.294-.983.301-.33 1.457-.846 2.043-.774.879-1.639 1.036-2.278 1.893 1.015.987-.171 2.38 1.257 2.952.362.393.315.641-.137.746-.57.09-.807.461-.705 1.11.395.363.273.765-.084 1.184-1.706.793-2.772 1.792-1.558 3.526 1.027.088 1.754.745 2.079 1.915-.055 1.076-.475 2.346.199 3.362.822.603 1.139 1.498-.082 1.792-.442-.494-.895-1.133-1.554-.947-.308.385-.746.46-1.314.226-.475-.91-1.151-1.026-1.92-.781-.791.01-1.474.124-1.388.972.248.51.446 1.045.28 1.751-.14.341-.411.44-.815.298-.182.977-.071 2.007.367 2.654-.651.451-1.034.967-1.076 1.701.775.193 1.32.34 1.672 1.21.342.912.047 1.275-.68.939-2.006-1.718-2.806.717-2.947 3.176-.023.404-.336.382-.691.3-.535 2.236.224 3.57-.599 5.75a99.738 99.738 0 0 0-2.578 22.634c0 44.86 29.387 81.563 65.74 82.587zM81.802 218l-.604-.005-.245-11.01C36.865 206.621 1 162.54 1 108.535c0-11.28 1.566-22.124 4.444-32.23.365-.702.537-.974.554-1.652-.243-1.514-.593-3.303 2.034-5.764 1.014-.19 1.285-1.002 1.222-2.098-1.599-2.476-.782-3.941 1.394-4.84 1.576-.598 1.628-2.78.122-2.691-.88.21-.798-.34-.497-.868.675-.17 1.357-.263 2.06-.09.375-.34.471-.676-.045-.998a1.66 1.66 0 0 0-.999.045c-.703-1.03-1.178-.66-1.62-.09-.456.18-.794.57-1.018 1.166-.394.225-.704.137-.931-.265.381-1.624.815-3.092 1.944-4.144.978-.688 1.324-1.493 1.775-1.972.573-.61 2.05-.28 3.38-.37.66-2.373 2.132-2.574 3.9-1.99l2.478-2.512c-.18-1.52-.04-2.873.32-4.11.995-.35 2.064-.335 3.182-.07-.032-2.649.172-4.737 2.046-2.894.393-1.411.983-2.029 2.013-.9.48-.129.686-.45.763-.86.3-1.569 1.238-3.164 3.03-4.23.143.189.255.609.398.799.327.182.557.124.689-.176-.046-.676.211-1.108.77-1.296.313-.7.283-1.408-.087-2.122.27-.894.615-1.19 1.126-.167-.092.682-.171 1.366.15 2.123 1.515-1.715 3.305-1.567 4.548-2.59-1.5-1.725-2.765-3.552-3.632-5.72-1.156-2.885.191-5.415 2.37-7.41 1.96-.81 3.277-2.12 4.334-3.284.627-.691 1.768-.6 2.652-.9 2.409-.604 3.191.816 3.31 1.734.277 1.006.9 1.782 1.677 2.453 1.142 1.134 1.442.971.903-.488-.159-1.076-.84-1.861-1.527-2.71-.462-1.285-.55-2.745.454-3.615 1.016-.878 1.57-1.035 1.688-1.793.793-1.492 2.169-1.831 3.347-1.607l2.26-.366c1.73-.28 1.797-2.606 5.232 1.443.346.408.658.403 1.014-.078.022-2.028 1.085-3.008 2.794-3.769 1.713-.668 5.199-.153 6.125-.867 1.315-1.014 2.763 1.624 3.085.904.411-.924 1.5-3.523 3.338-3.484 1.838.04 3.808.36 5.424.001.849-.188 2.286-.247 2.477.468.22.82.528 1.168 1.326 1.957.403.397.274 1.22.428 1.923.096.439.443.561.625.016.28-.844.654-1.308 1.297-1.902.633-.586 1.829-.189 2.53-.297 2.578-.398 4.368-.024 5.68 2.392l.397 3.66c.06.55.433.974.781.449 1.513-2.267 2.678-2.204 5.299-2.013 4.262.312 2.994.951 5.183 2.226 2.845 1.657 3.451 3.738 1.67 6.136l-1.843 2.86c-.665 1.033-.76 1.999.554.907 1.314-1.091 2.564-3.284 4.032-4.689.803-.77 2.585-.623 3.373.182.63.642.578 1.703 1.606 1.771l1.296.086c.341.023.309.947.65.93 2.133-.1 2.196 1.336 2.724 2.262.57.996 1.152.878 1.664 1.676.233.632.276 1.64-.216 2.108-.45.429-.43.993-.865 1.536-.042.93-.233 1.203-1.288 1.42-.548.112-.854.626-1 1.26l-1.026 1.667c1.316.548 2.975.64 4.462 2.97.354.556 5.607.082 5.607 3.133 0 3.38 2.969 1.896 2.969 3.874 0 2.639 1.566.989 2.968 2.39 1.484 1.485 3.217 3.629 4.535 4.948.496.494-.659 1.4.907 1.4 1.155 0 1.65.99 1.65 1.897 0 .577-.165 2.556.164 2.556 1.01.159 1.689 2.372 2.793 2.924.552.277 1.857 2.263 2.586 1.534 1.13-1.132.702 0 1.907 0 2.435 0 2.085 1.585 3.264 2.162.527.253.803.805.803 1.535 0 .855 1.004.427 1.004 1.182-.003.915-.175.866-.59 1.282-.099.098-.637-.098-.637.098 0 .662-.147.613-.783.613-1.615 0-.293.661-1.003 1.373-.343.343-.735.906-.441 1.495.416.858 1.517.27 1.517 1.64 0 .713-.097.762-.44 1.105-.073.073-.146.024-.195.146-.246.49.244.686.244.663.17.599.73 1.42.73 2.243 0 .524-.11 1.46.262 1.833.494.495.764.927.855 1.307.15.309.309.744.36.926C160.535 87.151 162 97.64 162 108.535c0 54.005-35.866 98.086-79.953 98.45L81.802 218zM12.488 62.07c.442-.033 1.329-.339 1.532-.536.286-.275 1.112.581 1.27.745.276.286.833 2.744.112 2.732-.4-.007-.454.714-.461 1.116-.002.2-1.578.935-1.821 1.051-.687.31-.622 1.194-1.152 1.706-1.06 1.026-1.077 2.07-3.04 2.035-1.844-.032.618-.993 1.022-1.187 1.656-.774.334-3.085.357-4.409.021-1.244.06-1.123.6-2.197.124-.24 1.462-1.098 1.581-1.056zm12.654 2.83c-.6-.01-.72-.053-1.035-.38-.196-.204-.111-.523-.592-.532-.922-.016-.651.55-1.257.82-1.293.62-2.155-.477-2.136-1.602.005-.24.497-.874.66-1.032 1.06-1.025 2.892-.391 3.6.344.236.245.6.05.592.533-.01.521.83.696.825.977-.005.28.273.446.028.683-.163.158-.325.235-.685.189zm-13.097-9.581c-3.446-.061.941-3.396 2.122-2.171 1.023 1.06 3.188 1.019 4.95 1.049 1.043.019 1.22-.982 1.82-.971 2.484.043.777 1.498.758 2.541-.012.683 2.571 1.932 1.52 2.436-.727.348-1.467 1.42-2.268 1.405-1.283-.022-1.647.172-1.672 1.617-.026 1.485-1.645.132-1.883.007-.596-.291-.496-1.493-1.092-1.785-1.469-.748.915-1.871 1.756-1.857 1.242.022 1.34-.98.71-1.632-.826-.858-1.88 2.094-3.667 1.18-.517-.25-.62-1.176-1.422-1.189-.922-.017-1.471-.668-1.632-.63zm9.02-3.417c.007-.463-.093-2.507.128-2.72.028-.027.152-.95.527-.563.694.72 3.03-2.342 3.226-2.72.563-1.105 1.61-.38 1.588.9-.009.489-.09 2.067-.395 2.361-.304.293-.91.719-1.241 1.04-.304.294-.497.426-1.066.416-.708-.013-.484 1.216-1.136 1.205-.218-.003-.577.317-.793.313-.163-.003-.816.04-.839-.232zM31.84 37.35c.003-.174.041-.313.043-.488.002-.034.072-.102.072-.102l.004-.175a.522.522 0 0 1 .108-.243c.035-.035.074-.208.143-.242.036 0 .072-.104.072-.104s.176-.101.212-.1l.105-.103.279.005c.313.005.586.359.724.501 0 0 .064.245.1.281 0 0 .029.28.029.315-.036.07-.143.137-.143.172l-.25.31c-.035.034-.278.03-.314.064l-.314.03c-.07.034-.35.064-.454.061-.07 0-.175-.002-.209-.038 0 0-.173-.073-.207-.144zM17.047 50.928c.33.006.59.392.582.859-.009.467-.283.844-.612.838-.327-.006-.588-.391-.58-.859.008-.467.282-.844.61-.838zM135.63 43c1.289 0 2.004 1.574 3.292 1.574.322 0 .68.787.68 1.109 0 .322.75.68.894.823.824.823-1.18 1.931-1.18.357 0-.93-1.002-.894-1.002.25 0 .537.465 1.324.465 2.147 0 1.68-.609 2.754-2.254 2.754-.322 0-1.897-1.287-2.11-1.502-.86-.858-.646-3.649 0-4.292.929-.93-.394-3.256 1.215-3.22zm5.868 8.942c.393 0 .68-.25.895-.25.536 0 .536.465.715.859.25.501-.393.787-.393 1.001 0 .072-.108.358-.108.501 0 .25.072.751-.072.894-.142.143-.965.93-1.251.645-.072-.072-.144-.036-.144-.18 0-.357.394-.465.394-.893 0-.358-.502-.144-.608-.394-.215-.465-.322-.859-.072-1.36.108-.214.536-.787.644-.823zm.733 5.726c.313-.521 1.33-2.163 1.85-2.163 1.044 0 1.252.651 1.252 1.615 0 .365-.417.495-.6.678-.86.86 1.2 3.91 1.903 1.798.13-.416.99-1.25.99-.365 0 .548.131 1.069-.234 1.433-.26.261-.522.34-.73.756-.443.913-.156 1.565-1.303 1.565-.678 0-.652-.835-.913-1.095-.339-.34-.208-.521-.73-.861-.469-.312-.286-.989-1.095-1.38-.182-.08-.365-1.695-.39-1.98zm4.004 21.418-.075-3.584c.001-.61.045-1.263.073-1.918.049-1.144 0-1.622.381-2.433.526-1.097-1.43-2.719-.334-3.816.954-.953.43-1.097.43-2.527 0-2.48 2.623.381 2.623-2.29l-.095-.81c0-1.145-.525-2.099 1.146-2.099.667 0 1.143-1.382 2.146-.906.858.429 1.431 1.144 2.051 1.431.526.239 1.48 1.479.86 2.098-.144.144-3.96-1.67-3.96.62 0 .43-1.385 3.338-1.766 3.72-2.003 2.004-.524 1.67-.524 3.53 0 .763-.954 2.098-.954 3.672 0 1.001-.43 4.099.713 5.243.142.142 3.026.887 3.264.887.573 0 2.701-6.464.029-6.464-2.623 0-2.194-3.052 0-3.052 2.864 0 .907 3.386 2.434 3.386.858 0 1.602 2.78 1.602 3.637l.124.6c2.63 9.601 4.057 19.865 4.057 30.524 0 53.192-35.471 96.574-78.96 96.574-43.49 0-78.96-43.382-78.96-96.574 0-12.102 1.838-23.693 5.187-34.384a4.912 4.912 0 0 1 3.067-.046c.312.614.312 1.278 0 1.995-1.284 1.152-.835 2.641-.437 4.115.546.574.858.47.936-.312-.26-1.611.293-1.795.873-1.932.489-.475.821-.35.997.373 2.636-1.996 3.03 5.333 1.808 7.608a103.405 103.405 0 0 0-2.474 22.583c0 46.907 30.998 85.166 69.002 85.166 38.006 0 69.003-38.259 69.003-85.166 0-10.343-1.51-20.265-4.267-29.45zM120.55 29.097c-.205.037-.385.13-.537.255-1.433.187-1.99-.532-2.56-1.762-.292-.63-1.707.398-1.234 1.007.49.632 1.198 1.038 1.597 1.63.37.532.186.876.033 1.234-1.489 1.265-2.978 2.532-4.466 3.799-.57.34-.96.266-1.166-.22l.175-1.273c.548-.115.928-.458 1.23-.904.247-.435.277-.657.275-1.228 0-.808.162-.96-.542-1.262-.494-.211-.25-.936-.597-1.214-.68-.543-1.591-.273-1.906.16-.128.22-.184.53-.402.6-1.775.572-2.527 1.26-3.362 2.573-.89.952-1.276.728-1.433-.03.039-.682.077-1.364.117-2.045 1.189-1.031 1.705-2.697 2.868-3.634.18-.145.52.006.675-.166.185-.207.022-.596.2-.81a3.093 3.093 0 0 1 1.228-.905c.303-.117.88.365.97.055.27-.923-.095-1.92-.143-2.881.523-.219 1.095-.41.83-1.082.706.087.82-.212.851-.566.325-1.428 1.42-2.163 2.471-2.938 1.57-.903 2.915-.245 4.036 1.972l-.384 1.364c-.166.31.012.31.24.269 1.479-1.055 2.592-1.086 2.906 1.14l-1.818 2.257c-.763 1.089.462 1.81 1.06.514.156-.026.304-.198.46-.223.735-1.808 2.46-.811 1.553.601l-.912 1.641c-.566-.06-1.006.17-1.32.694.093.314.13.623-.205.913-.273 0-.547.002-.82.005-.035.165.023.306.032.46zm-80.957-8.746c.438-.419 2.26.476 1.998-.072-.605-1.271.565-1.47 1.103-2.373.481-.805 1.116-1.795 1.583-.765.25.55.618 1.606 1.175 1.377.58-.236-.073-1.264.05-1.878.26-1.29 1.265-1.24 1.885-.063.626 1.188 1.105 2.462 1.85 3.58.172.262.68.17.828.446.172.317-.23.8-.003 1.083.2.251.779-.154.962.111.283.41-.124 1.068.143 1.49.232.365.932.212 1.164.578.266.422-.094 1.052.144 1.49.17.313.75.208.94.51.205.323-.06.8.106 1.145.359.742 1.151 1.241 1.424 2.018.21.59.357 1.402-.05 1.878-.264.31-.704-.468-1.11-.52-.203-.025-.37.44-.53.313-.81-.64-1.067-1.96-1.959-2.481-.688-.403-2.568-.577-2.806.183-.623 1.99-.438 4.295.733 5.991.366.53.37 1.324.067 1.894-.175.329-.821.26-1.16.102-1.258-.586-2.037-1.5-2.448-2.814-.158-.503-.746-.432-1.262-.683-.455-.222-.832-.768-1.084-1.159-.182-.283.36-.626.67-.76.262-.113.54.155.783.008.465-.281.924-.644 1.106-1.154.223-.625.287-1.393-.202-1.841-.388-.357-.514.52-.99.747-1.619.777-2.743.945-3.655.135-1.503-1.333-2.73-3.207-3.07-5.188-.206-1.214.723-2.476 1.615-3.328zm13.985-7.93c.591.667 1.36 1.209 1.78 1.994.208.384.241.947-.003 1.308-.15.221-.597.05-.787-.137-.664-.657-.931-1.669-1.648-2.267-.27-.226-.903-.307-1.053.01-.18.384.388.763.494 1.173.114.435-.03.933.158 1.342.158.34.675.425.822.77.198.466-.076 1.055.147 1.509.632 1.28.933 3.537 2.36 3.575l1.349.036c-.179.56-.731 1.128-.533 1.68.741 2.072 1.977 3.944 3.2 5.774.186.279.825.719.924.398.363-1.177.253-2.473.094-3.696-.067-.521-.717-.86-.753-1.385-.079-1.143.338-2.115 1.25-2.914 1.084.974 1.584 1.97 2.273 2.96.454.653.193 1.581.454 2.332.244.7.71 1.328 1.235 1.852.168.167.587.29.712.086.39-.639.212-1.35.107-1.914-.057-.313.256-.634.169-.94-.096-.34-.69-.472-.669-.824.176-3.1.328-4.82-1.443-5.249-1.857-.45-.99-3.69-.858-5.409.025-.318-.005-.695-.217-.934-.144-.162-.635.18-.648-.036-.051-.875-.11-1.726-.79-2.269-.12-.094-.283-.191-.307-.342-.048-.304.313-.689.106-.916-2.055-2.259-3.373-1.834-2.092 1.562.374.992-.228 1.504-.783.444-.314-.598-.363-1.718-1.038-1.74-2.705-.09-5.566.412-4.012 2.167zm12.064-2.85c.05.332.69.318.775.642.233.875-.142 1.847.116 2.717.105.35.847.284.885.647.125 1.18.034 3.068 1.678 3.838l1.318.615c-.473.353-1.066.766-.48 1.764.194.329.511.112.666.461.195.44.003 1.3.343 1.82.169.258-.203.757.055.924.92.595.752 1.145.86 2.056.037.33-.157.878.16.985.303.103.532.186.595.956.091 1.12 2.255 1.871 2.476.248.306-2.242.148-4.917.591-7.558.13-.77-.43-1.818-1.184-2.02l-1.28-.344c.407-.193.996-.191 1.223-.58.338-.58-.133-1.461.275-1.992.468-.607.936-1.214.27-1.883-.822-.825-.478-2.287-.563-3.449-.068-.936.158-1.877.106-2.814-.05-.907-1.56-1.523-1.693-.693L72.58 7.47c-.772-1.979-1.37-1.921-1.796.17-.805.03-1.341-.558-1.89-1.03-.3-.257-1.05.035-1.107.426l-.175 1.183c-1.815-1.52-2.256-.513-1.972 1.352zM81.12 3.456c.633 1.046.51 3.549 1.2 3.132.589-.355.33-1.975.69-2.89.399-1.012 1.585-.716 1.57.5-.044 3.513 1.602-2.235 2.294 1.456.525 2.799-.197 5.854-.641 8.954-.006.05.024.16-.025.149-1.247-.305-.8 1.462-.623 2.301.477 2.263-1.26 4.237-2.04 5.402-.856 1.276.27 3.542-.434 4.93-.82 1.614-2.612 1.504-2.435.083.628-5.04-.531-3.605-.646-4.191-.322-1.634-.482-3.198-.054-4.658.018-.06-.002-.157.056-.178.758-.273.794-.69-.006-1.09-.08-.04-.069-.164-.088-.246-.086-.36.021-.703.517-.717 1.743-.053 1.589-.727-.137-1.2-.733-.2-1.02-.803-.825-1.034.817-.966-.543-1.926-.742-2.494-.389-1.114.133-2.863-.231-4.273-.199-.77-.748-1.07-.787-1.251-.368-1.646 2.634-3.93 3.387-2.685zM93.07 6.505c.063 4.338.59 4.804 1.691.588.66-.87 1.298-1.02 1.887.415-.176.796.005 1.358.967 1.41.163.687.286 1.445-.115 2.025-.177.258-.725.05-.88.321-.224.391.101.936-.077 1.35-.132.307-.647.326-.776.633-.227.55.038 1.238-.223 1.774-.234.482-1.024.588-1.172 1.104-.34 1.182.094 2.492-.208 3.683-.074.293-.78.086-.823.385-.1.699.16 1.58-.421 1.884-1.439.757-1.583 2.805-2.864 3.904-.257.96-.677 1.195-1.171 1.103l.046-1.58c.358-.055.442-.237.57-.602l-.084-7.21c-.148-1.054.309-1.387 1.179-1.227 1.07.145 1.393-.104.965-.745l-1.761-1.517-.028-4.93.681-.392.25-2.204c.16-1.4 2.345-1.723 2.367-.172zm17.205 10.278c-.773.755-1.269 1.781-2.056 2.587-.789.805-1.87 1.39-2.643 2.145l.7 1.111c-.488 1.146-.978 2.29-1.467 3.437-1.179 1.297-1.307.863-1.283.181.053-1.084.397-2.069 1.382-2.829.253-.424.394-.918-.109-.771-.158-.161-.359-.19-.606-.085.194-.26.265-.771.066-1.054-.258-.113-.628.008-1.022.133-.037-.274-.087-.447-.123-.721-.594-.246-.837-.339-1.128.14l-4.64 5.5c-.81.498-1.245.406-1.308-.278l.404-2.63.63-.32a3.74 3.74 0 0 1 .046-1.732c.052-.61.287-.868.706-.776l.352-1.714 1.241-.338c.453-.195.707-.47.76-.825-.137-.215-.195-.5-.637-.443-.425-1.494-.295-2.865.084-4.179l.877-.204c.744-4.712 7.167-4.021 5.793.226-.308.646-.617 1.29-.924 1.937-.24.502.197.872.633.495.63-.547 1.09-1.265 1.636-1.897.269-2.059 1.13-3.183 3.095-1.61.554 1.605.603 3.138-.46 4.514zm-5.947 3.617.779.044c-.262.296-.28.606-.053.93-.553-.157-1-.37-.726-.974z" stroke="#1B1918" stroke-width=".142"/>
    </g>
</svg>
